<?xml version="1.0" encoding="UTF-8" standalone="no"?>
<!-- Generator: Adobe Illustrator 13.0.0, SVG Export Plug-In  -->

<svg
   xmlns:dc="http://purl.org/dc/elements/1.1/"
   xmlns:cc="http://creativecommons.org/ns#"
   xmlns:rdf="http://www.w3.org/1999/02/22-rdf-syntax-ns#"
   xmlns:svg="http://www.w3.org/2000/svg"
   xmlns="http://www.w3.org/2000/svg"
   xmlns:sodipodi="http://sodipodi.sourceforge.net/DTD/sodipodi-0.dtd"
   xmlns:inkscape="http://www.inkscape.org/namespaces/inkscape"
   version="1.1"
   x="0px"
   y="0px"
   width="507px"
   height="459px"
   viewBox="-21.914 -25.609 507 459"
   enable-background="new -21.914 -25.609 507 459"
   xml:space="preserve"
   id="svg2"
   inkscape:version="0.91 r13725"
   sodipodi:docname="rhr.svg"
   inkscape:export-filename="/home/amoreira/MEOCloud/aulas/2016-17/of/3-nts/sections/02emw/figs/rhr.png"
   inkscape:export-xdpi="300"
   inkscape:export-ydpi="300"><sodipodi:namedview
     pagecolor="#ffffff"
     bordercolor="#666666"
     borderopacity="1"
     objecttolerance="10"
     gridtolerance="10"
     guidetolerance="10"
     inkscape:pageopacity="0"
     inkscape:pageshadow="2"
     inkscape:window-width="1247"
     inkscape:window-height="941"
     id="namedview74"
     showgrid="false"
     inkscape:zoom="1.0283224"
     inkscape:cx="241.58754"
     inkscape:cy="182.76483"
     inkscape:window-x="0"
     inkscape:window-y="0"
     inkscape:window-maximized="0"
     inkscape:current-layer="svg2" /><metadata
     id="metadata76"><rdf:RDF><cc:Work
         rdf:about=""><dc:format>image/svg+xml</dc:format><dc:type
           rdf:resource="http://purl.org/dc/dcmitype/StillImage" /></cc:Work></rdf:RDF></metadata><defs
     id="defs4"><marker
       inkscape:isstock="true"
       style="overflow:visible;"
       id="marker9122"
       refX="0.0"
       refY="0.0"
       orient="auto"
       inkscape:stockid="Arrow2Mend"><path
         transform="scale(0.6) rotate(180) translate(0,0)"
         d="M 8.7185878,4.0337352 L -2.2072895,0.016013256 L 8.7185884,-4.0017078 C 6.9730900,-1.6296469 6.9831476,1.6157441 8.7185878,4.0337352 z "
         style="fill-rule:evenodd;stroke-width:0.625;stroke-linejoin:round;stroke:#000000;stroke-opacity:1;fill:#000000;fill-opacity:1"
         id="path9124" /></marker><marker
       inkscape:isstock="true"
       style="overflow:visible;"
       id="marker7326"
       refX="0.0"
       refY="0.0"
       orient="auto"
       inkscape:stockid="Arrow2Mend"><path
         transform="scale(0.6) rotate(180) translate(0,0)"
         d="M 8.7185878,4.0337352 L -2.2072895,0.016013256 L 8.7185884,-4.0017078 C 6.9730900,-1.6296469 6.9831476,1.6157441 8.7185878,4.0337352 z "
         style="fill-rule:evenodd;stroke-width:0.625;stroke-linejoin:round;stroke:#000000;stroke-opacity:1;fill:#000000;fill-opacity:1"
         id="path7328" /></marker><marker
       inkscape:stockid="Arrow1Send"
       orient="auto"
       refY="0.0"
       refX="0.0"
       id="marker5842"
       style="overflow:visible;"
       inkscape:isstock="true"><path
         id="path5844"
         d="M 0.0,0.0 L 5.0,-5.0 L -12.5,0.0 L 5.0,5.0 L 0.0,0.0 z "
         style="fill-rule:evenodd;stroke:#ff0000;stroke-width:1pt;stroke-opacity:1;fill:#ff0000;fill-opacity:1"
         transform="scale(0.2) rotate(180) translate(6,0)" /></marker><marker
       inkscape:isstock="true"
       style="overflow:visible;"
       id="marker5362"
       refX="0.0"
       refY="0.0"
       orient="auto"
       inkscape:stockid="Arrow1Send"><path
         transform="scale(0.2) rotate(180) translate(6,0)"
         style="fill-rule:evenodd;stroke:#0000ff;stroke-width:1pt;stroke-opacity:1;fill:#0000ff;fill-opacity:1"
         d="M 0.0,0.0 L 5.0,-5.0 L -12.5,0.0 L 5.0,5.0 L 0.0,0.0 z "
         id="path5364" /></marker><marker
       inkscape:stockid="Arrow2Mend"
       orient="auto"
       refY="0.0"
       refX="0.0"
       id="marker4556"
       style="overflow:visible;"
       inkscape:isstock="true"
       inkscape:collect="always"><path
         id="path4558"
         style="fill-rule:evenodd;stroke-width:0.625;stroke-linejoin:round;stroke:#000000;stroke-opacity:1;fill:#000000;fill-opacity:1"
         d="M 8.7185878,4.0337352 L -2.2072895,0.016013256 L 8.7185884,-4.0017078 C 6.9730900,-1.6296469 6.9831476,1.6157441 8.7185878,4.0337352 z "
         transform="scale(0.6) rotate(180) translate(0,0)" /></marker><marker
       inkscape:stockid="Arrow2Lend"
       orient="auto"
       refY="0.0"
       refX="0.0"
       id="Arrow2Lend"
       style="overflow:visible;"
       inkscape:isstock="true"><path
         id="path4231"
         style="fill-rule:evenodd;stroke-width:0.625;stroke-linejoin:round;stroke:#000000;stroke-opacity:1;fill:#000000;fill-opacity:1"
         d="M 8.7185878,4.0337352 L -2.2072895,0.016013256 L 8.7185884,-4.0017078 C 6.9730900,-1.6296469 6.9831476,1.6157441 8.7185878,4.0337352 z "
         transform="scale(1.1) rotate(180) translate(1,0)" /></marker><marker
       inkscape:stockid="Arrow2Mend"
       orient="auto"
       refY="0.0"
       refX="0.0"
       id="Arrow2Mend"
       style="overflow:visible;"
       inkscape:isstock="true"><path
         id="path4237"
         style="fill-rule:evenodd;stroke-width:0.625;stroke-linejoin:round;stroke:#000000;stroke-opacity:1;fill:#000000;fill-opacity:1"
         d="M 8.7185878,4.0337352 L -2.2072895,0.016013256 L 8.7185884,-4.0017078 C 6.9730900,-1.6296469 6.9831476,1.6157441 8.7185878,4.0337352 z "
         transform="scale(0.6) rotate(180) translate(0,0)" /></marker><marker
       inkscape:stockid="Arrow1Mend"
       orient="auto"
       refY="0.0"
       refX="0.0"
       id="Arrow1Mend"
       style="overflow:visible;"
       inkscape:isstock="true"><path
         id="path4219"
         d="M 0.0,0.0 L 5.0,-5.0 L -12.5,0.0 L 5.0,5.0 L 0.0,0.0 z "
         style="fill-rule:evenodd;stroke:#0000ff;stroke-width:1pt;stroke-opacity:1;fill:#0000ff;fill-opacity:1"
         transform="scale(0.4) rotate(180) translate(10,0)" /></marker></defs><path
     d="m 436.83581,292.11851 c -22,-3 -57,-23 -62,-26 -5,-3 -28,-28 -40,-47 -12,-19 -23,-42 -27,-55 -4,-13 -8,-26 -9,-33 -1,-7 1,-23.5 4,-30.5 -7,-5.000002 -21,-6.000002 -27,7 -6,13 -11,33 -11,46 0,13 22,55 8,61 -14,6 -17,14 -89,-4 -72,-18 -101.999998,-20 -108.999998,-6 -7,14 33.999998,20 55.999998,24 22,4 72.021,22.634 65,32 -4.35,5.802 -9.375,4.488 -20.709,8.488 -19.611,6.922 -19.308,9.966 -43.791,18.345 -24.433,8.362 -22.843,32.226 -15.167,36.23 7.676,4.004 14.016,6.342 46.386,-12.013 14.35,-5.34 31.782,-8.885 47.115,-10.218 15.333,-1.333 24.668,56 41.334,64.667 16.666,8.667 35.999,8 47.999,8 12,0 18.666,2.001 25.333,-1.333 6.667,-3.334 25.334,1.332 35.334,6.666 0,0 38.667,18.667 42,22.667"
     id="path6"
     inkscape:connector-curvature="0"
     style="fill:#e5d4b1;stroke:#000000;stroke-width:3" /><path
     d="m 204.33681,259.11751 c 33.999,-1.999 45.999,30.667 53.999,48.001"
     id="path8"
     inkscape:connector-curvature="0"
     style="fill:none;stroke:#897f6a;stroke-width:2" /><path
     d="m 276.00281,233.78351 c 0.334,25.334 11.001,46.668 25.333,54.666"
     id="path10"
     inkscape:connector-curvature="0"
     style="fill:none;stroke:#897f6a;stroke-width:2" /><path
     d="m 209.66981,219.11751 c -8,1.333 -17.333,20 -13.333,25.333"
     id="path12"
     inkscape:connector-curvature="0"
     style="fill:none;stroke:#897f6a;stroke-width:2" /><path
     d="m 167.00281,208.45051 c -5.333,4 -16,13.333 -13.333,18.667"
     id="path14"
     inkscape:connector-curvature="0"
     style="fill:none;stroke:#897f6a;stroke-width:2" /><path
     d="m 124.38589,202.36695 c -6.667,4 -8.834,15.501 -10.167,18.167"
     id="path16"
     inkscape:connector-curvature="0"
     style="fill:none;stroke:#897f6a;stroke-width:2" /><path
     d="m 192.33681,268.45151 c 8,4 12,17.332 9.333,26.666"
     id="path18"
     inkscape:connector-curvature="0"
     style="fill:none;stroke:#897f6a;stroke-width:2" /><path
     d="m 171.14981,275.72351 c 6.667,4 7.248,23.993 4.581,27.993"
     id="path20"
     inkscape:connector-curvature="0"
     style="fill:none;stroke:#897f6a;stroke-width:2" /><path
     d="m 145.70181,286.92051 c 8.648,6.485 9.591,15.534 5.089,26.466"
     id="path22"
     inkscape:connector-curvature="0"
     style="fill:none;stroke:#897f6a;stroke-width:2" /><path
     d="m 263.83581,224.61851 c -4,10 -7,18 -6,24"
     id="path24"
     inkscape:connector-curvature="0"
     style="fill:none;stroke:#897f6a;stroke-width:2" /><path
     d="m 264.83581,153.61851 c 11.947,1.707 2.677,3.252 25,-1"
     id="path26"
     inkscape:connector-curvature="0"
     style="fill:none;stroke:#897f6a;stroke-width:2" /><path
     d="m 369.00281,275.11851 c -4,12 -8,15.999 -14.667,19.999"
     id="path28"
     inkscape:connector-curvature="0"
     style="fill:none;stroke:#897f6a;stroke-width:2" /><path
     d="m 269.66981,362.78551 c 15.905,-3.181 27.334,-5.333 36,-8 8.666,-2.667 21.332,-10.001 24.666,-16.667 3.334,-6.666 0.667,-7.999 -1.333,-12.666 -2,-4.667 -23.999,-2 -29.333,0 -5.334,2 -10,4 -32,7.333 -22,3.333 -28,5 -39.334,3.666 -9.292,-1.094 1.335,22.333 6.001,25 4.666,2.667 5.333,7.334 35.333,1.334 z"
     id="path30"
     inkscape:connector-curvature="0"
     style="fill:#e5d4b1;stroke:#000000;stroke-width:3" /><path
     d="m 286.63781,300.11851 c 18.897,-1.333 28.348,-2.666 33.435,2.667 5.087,5.333 2.906,10.667 1.453,12 -1.453,1.333 -18.171,8.666 -26.893,11.333 -8.723,2.667 -10.176,0.667 -27.619,4.667 -17.444,4 -18.897,5.333 -23.986,7.333 -5.088,2 -15.263,1.333 -24.711,-6 -9.449,-7.333 -7.996,-20 -7.269,-24 0.727,-4 1.455,-12.667 19.625,-14 18.17,-1.333 12.354,4.666 35.614,5.333 23.258,0.667 20.351,0.667 20.351,0.667 z"
     id="path32"
     inkscape:connector-curvature="0"
     style="fill:#e5d4b1;stroke:#000000;stroke-width:3" /><path
     d="m 215.66881,306.78551 c -1.923,17.305 1.109,18.166 10.667,25.333"
     id="path34"
     inkscape:connector-curvature="0"
     style="fill:none;stroke:#897f6a;stroke-width:2" /><path
     d="m 245.00281,307.11751 c 0,5.333 1.333,17.333 1.333,17.333"
     id="path36"
     inkscape:connector-curvature="0"
     style="fill:none;stroke:#897f6a;stroke-width:2" /><path
     d="m 278.00281,305.45051 c 0,2.667 1.334,13.333 1.334,17.333"
     id="path38"
     inkscape:connector-curvature="0"
     style="fill:none;stroke:#897f6a;stroke-width:2" /><path
     d="m 284.66881,335.45251 c 0,4 6.667,17.333 6.667,17.333"
     id="path40"
     inkscape:connector-curvature="0"
     style="fill:none;stroke:#897f6a;stroke-width:2" /><path
     d="m 252.33581,343.11851 c 1.333,2.667 2.667,14.666 6.667,16"
     id="path42"
     inkscape:connector-curvature="0"
     style="fill:none;stroke:#897f6a;stroke-width:2" /><path
     d="m 375.66881,307.11851 c -6.666,12 -10.666,42.668 -17.333,49.334"
     id="path44"
     inkscape:connector-curvature="0"
     style="fill:none;stroke:#897f6a;stroke-width:2" /><path
     style="opacity:1;fill:none;fill-rule:evenodd;stroke:#000000;stroke-width:5;stroke-linecap:butt;stroke-linejoin:miter;stroke-miterlimit:4;stroke-dasharray:none;stroke-opacity:1;marker-end:url(#marker4556)"
     d="M 178.41226,225.28507 42.426665,196.06247"
     id="path6818"
     inkscape:connector-curvature="0"
     sodipodi:nodetypes="cc" /><path
     sodipodi:nodetypes="cc"
     inkscape:connector-curvature="0"
     id="path7324"
     d="m 168.1669,292.88866 -95.415348,38.8529"
     style="opacity:1;fill:none;fill-opacity:1;fill-rule:evenodd;stroke:#000000;stroke-width:5;stroke-linecap:butt;stroke-linejoin:miter;stroke-miterlimit:4;stroke-dasharray:none;stroke-opacity:1;marker-end:url(#marker7326)" /><g
     id="g8557"
     transform="matrix(1.7578125,0,0,1.7578125,-263.72691,-21.0929)"
     style="fill:#000000;fill-opacity:1;stroke:#000000;stroke-width:0.5;stroke-miterlimit:4;stroke-dasharray:none;stroke-opacity:1"><g
       word-spacing="normal"
       letter-spacing="normal"
       font-size-adjust="none"
       font-stretch="normal"
       font-weight="normal"
       font-variant="normal"
       font-style="normal"
       stroke-miterlimit="10.433"
       xml:space="preserve"
       transform="matrix(0.65571429,0,0,-0.65571429,-114.75,380.25)"
       id="content"
       style="font-style:normal;font-variant:normal;font-weight:normal;font-stretch:normal;letter-spacing:normal;word-spacing:normal;text-anchor:start;fill:#000000;fill-opacity:1;fill-rule:evenodd;stroke:#000000;stroke-width:0.76252723;stroke-linecap:butt;stroke-linejoin:miter;stroke-miterlimit:4;stroke-dasharray:none;stroke-dashoffset:0;stroke-opacity:1"><path
         id="path8560"
         d="m 479.15,435.84 -0.07,-0.06 -0.07,-0.07 -0.08,-0.07 -0.08,-0.07 -0.08,-0.08 -0.09,-0.08 -0.09,-0.09 -0.1,-0.08 -0.09,-0.09 -0.1,-0.1 -0.2,-0.19 -0.19,-0.19 -0.19,-0.21 -0.09,-0.1 -0.09,-0.1 -0.09,-0.1 -0.08,-0.11 -0.08,-0.1 -0.08,-0.1 -0.07,-0.1 -0.07,-0.1 -0.05,-0.1 -0.06,-0.1 -0.04,-0.1 -0.04,-0.09 -0.03,-0.09 -0.03,-0.1 -0.01,-0.08 -0.01,-0.09 c 0,-0.5 0.5,-1 1,-1 0.46,0 0.71,0.36 0.96,0.66 0.59,0.75 1.73,2.14 3.94,3.23 0.34,0.21 0.84,0.46 0.84,1.05 0,0.5 -0.34,0.75 -0.7,1 -1.1,0.75 -1.64,1.64 -2.05,2.83 -0.09,0.45 -0.3,1.11 -0.99,1.11 -0.7,0 -1,-0.66 -1,-1.05 0,-0.25 0.4,-1.84 1.19,-2.89 l -16.78,0 c -0.84,0 -1.75,0 -1.75,-1 0,-1 0.91,-1 1.75,-1 z"
         inkscape:connector-curvature="0"
         style="fill:#000000;fill-opacity:1;stroke:#000000;stroke-width:0.76252723;stroke-miterlimit:4;stroke-dasharray:none;stroke-opacity:1" /><path
         id="path8562"
         d="m 474.09,425.03 -0.08,0.17 -0.09,0.17 -0.09,0.16 -0.1,0.16 -0.1,0.16 -0.1,0.16 -0.1,0.15 -0.11,0.14 -0.12,0.15 -0.11,0.13 -0.12,0.14 -0.13,0.13 -0.12,0.12 -0.14,0.12 -0.13,0.11 -0.14,0.11 -0.14,0.11 -0.15,0.09 -0.15,0.1 -0.16,0.08 -0.16,0.08 -0.16,0.08 -0.17,0.06 -0.17,0.07 -0.18,0.05 -0.18,0.05 -0.18,0.04 -0.19,0.03 -0.2,0.03 -0.19,0.02 -0.21,0.01 -0.2,0 0.04,-1.09 c 3.24,0 3.94,-4.08 3.94,-4.37 0,-0.32 -0.09,-0.61 -0.14,-0.86 l -2.5,-9.77 c -0.25,-0.89 -0.25,-0.98 -1,-1.84 -2.19,-2.74 -4.24,-3.53 -5.63,-3.53 -2.48,0 -3.18,2.73 -3.18,4.68 0,2.49 1.59,8.61 2.73,10.91 1.55,2.94 3.8,4.78 5.78,4.78 l -0.04,1.09 c -5.83,0 -12,-7.31 -12,-14.59 0,-4.69 2.73,-7.97 6.62,-7.97 0.98,0 3.48,0.21 6.47,3.74 0.41,-2.1 2.14,-3.74 4.53,-3.74 1.75,0 2.89,1.14 3.69,2.74 0.84,1.79 1.5,4.84 1.5,4.93 0,0.5 -0.45,0.5 -0.6,0.5 -0.5,0 -0.54,-0.2 -0.7,-0.9 -0.84,-3.24 -1.75,-6.17 -3.78,-6.17 -1.34,0 -1.5,1.29 -1.5,2.29 0,1.1 0.09,1.49 0.64,3.69 0.56,2.09 0.66,2.59 1.11,4.48 l 1.78,6.97 c 0.36,1.39 0.36,1.5 0.36,1.69 0,0.86 -0.61,1.36 -1.45,1.36 -1.19,0 -1.94,-1.11 -2.1,-2.2 z"
         inkscape:connector-curvature="0"
         style="fill:#000000;fill-opacity:1;stroke:#000000;stroke-width:0.76252723;stroke-miterlimit:4;stroke-dasharray:none;stroke-opacity:1" /></g></g><g
     style="fill:#000000;fill-opacity:1;stroke:#000000;stroke-width:0.5;stroke-miterlimit:4;stroke-dasharray:none;stroke-opacity:1"
     transform="matrix(1.7578125,0,0,1.7578125,-222.40147,188.49606)"
     id="g8723"><g
       style="font-style:normal;font-variant:normal;font-weight:normal;font-stretch:normal;letter-spacing:normal;word-spacing:normal;text-anchor:start;fill:#000000;fill-opacity:1;fill-rule:evenodd;stroke:#000000;stroke-width:0.76252723;stroke-linecap:butt;stroke-linejoin:miter;stroke-miterlimit:4;stroke-dasharray:none;stroke-dashoffset:0;stroke-opacity:1"
       id="g8725"
       transform="matrix(0.65571429,0,0,-0.65571429,-114.75,380.25)"
       xml:space="preserve"
       stroke-miterlimit="10.433"
       font-style="normal"
       font-variant="normal"
       font-weight="normal"
       font-stretch="normal"
       font-size-adjust="none"
       letter-spacing="normal"
       word-spacing="normal"><path
         style="fill:#000000;fill-opacity:1;stroke:#000000;stroke-width:0.76252723;stroke-miterlimit:4;stroke-dasharray:none;stroke-opacity:1"
         inkscape:connector-curvature="0"
         d="m 476.75,448.92 -0.07,-0.06 -0.07,-0.07 -0.08,-0.07 -0.08,-0.07 -0.08,-0.08 -0.09,-0.08 -0.09,-0.09 -0.1,-0.08 -0.09,-0.09 -0.1,-0.09 -0.19,-0.19 -0.2,-0.2 -0.19,-0.2 -0.09,-0.11 -0.09,-0.1 -0.09,-0.1 -0.08,-0.1 -0.08,-0.11 -0.08,-0.1 -0.07,-0.1 -0.06,-0.1 -0.06,-0.1 -0.06,-0.1 -0.04,-0.1 -0.04,-0.09 -0.03,-0.09 -0.03,-0.09 -0.01,-0.09 0,-0.09 c 0,-0.5 0.5,-1 1,-1 0.45,0 0.7,0.36 0.95,0.66 0.59,0.75 1.73,2.14 3.94,3.24 0.34,0.2 0.84,0.45 0.84,1.04 0,0.5 -0.34,0.75 -0.7,1 -1.1,0.75 -1.64,1.64 -2.05,2.83 -0.09,0.45 -0.3,1.11 -0.98,1.11 -0.71,0 -1,-0.66 -1,-1.05 0,-0.25 0.39,-1.84 1.18,-2.89 l -16.78,0 c -0.84,0 -1.75,0 -1.75,-1 0,-1 0.91,-1 1.75,-1 z"
         id="path8727" /><path
         style="fill:#000000;fill-opacity:1;stroke:#000000;stroke-width:0.76252723;stroke-miterlimit:4;stroke-dasharray:none;stroke-opacity:1"
         inkscape:connector-curvature="0"
         d="m 467.43,440.23 0,0 0,0.01 0,0 0,0.01 -0.01,0.02 0,0.01 0,0.02 0,0.02 0,0.02 -0.01,0.02 0,0.02 -0.01,0.02 -0.01,0.02 -0.01,0.03 -0.01,0.02 -0.01,0.03 -0.01,0.02 -0.02,0.03 -0.02,0.02 -0.02,0.02 -0.02,0.03 -0.01,0.01 -0.02,0.01 -0.01,0.01 -0.01,0.01 -0.02,0.01 -0.01,0.01 -0.02,0.01 -0.01,0.01 -0.02,0.01 -0.02,0.01 -0.02,0 -0.02,0.01 -0.02,0.01 -0.02,0 -0.02,0.01 -0.02,0.01 -0.03,0 -0.02,0 -0.03,0.01 -0.02,0 -0.03,0 -0.03,0.01 -0.03,0 -0.02,0 c -1.16,0 -4.79,-0.41 -6.08,-0.5 -0.41,-0.05 -0.96,-0.1 -0.96,-1 0,-0.6 0.46,-0.6 1.21,-0.6 2.39,0 2.48,-0.34 2.48,-0.84 0,-0.36 -0.45,-2.05 -0.7,-3.09 l -4.08,-16.24 c -0.59,-2.5 -0.8,-3.3 -0.8,-5.03 0,-4.73 2.64,-7.83 6.33,-7.83 l 0,1.1 c -1.7,0 -3.34,1.34 -3.34,5.03 0,0.95 0,1.89 0.79,5.03 l 1.1,4.59 c 0.3,1.1 0.3,1.19 0.75,1.74 2.44,3.23 4.69,3.98 5.98,3.98 1.8,0 3.14,-1.48 3.14,-4.69 0,-2.93 -1.65,-8.65 -2.54,-10.56 -1.64,-3.33 -3.94,-5.12 -5.88,-5.12 l 0,-1.1 c 5.88,0 12,7.42 12,14.6 0,4.53 -2.64,7.96 -6.62,7.96 -2.28,0 -4.33,-1.43 -5.83,-2.98 z"
         id="path8729" /></g></g><g
     id="g8951"
     transform="matrix(1.7578125,0,0,1.7578125,-22.312076,-118.72618)"
     style="fill:#000000;fill-opacity:1;stroke:#000000;stroke-width:0.5;stroke-miterlimit:4;stroke-dasharray:none;stroke-opacity:1"><g
       word-spacing="normal"
       letter-spacing="normal"
       font-size-adjust="none"
       font-stretch="normal"
       font-weight="normal"
       font-variant="normal"
       font-style="normal"
       stroke-miterlimit="10.433"
       xml:space="preserve"
       transform="matrix(0.65571429,0,0,-0.65571429,-114.75,380.25)"
       id="g8953"
       style="font-style:normal;font-variant:normal;font-weight:normal;font-stretch:normal;letter-spacing:normal;word-spacing:normal;text-anchor:start;fill:#000000;fill-opacity:1;fill-rule:evenodd;stroke:#000000;stroke-width:0.76252723;stroke-linecap:butt;stroke-linejoin:miter;stroke-miterlimit:4;stroke-dasharray:none;stroke-dashoffset:0;stroke-opacity:1"><path
         id="path8955"
         d="m 479.15,435.84 -0.07,-0.06 -0.07,-0.07 -0.08,-0.07 -0.08,-0.07 -0.08,-0.08 -0.09,-0.08 -0.09,-0.09 -0.1,-0.08 -0.09,-0.09 -0.1,-0.1 -0.2,-0.19 -0.19,-0.19 -0.19,-0.21 -0.09,-0.1 -0.09,-0.1 -0.09,-0.1 -0.08,-0.11 -0.08,-0.1 -0.08,-0.1 -0.07,-0.1 -0.07,-0.1 -0.05,-0.1 -0.06,-0.1 -0.04,-0.1 -0.04,-0.09 -0.03,-0.09 -0.03,-0.1 -0.01,-0.08 -0.01,-0.09 c 0,-0.5 0.5,-1 1,-1 0.46,0 0.71,0.36 0.96,0.66 0.59,0.75 1.73,2.14 3.94,3.23 0.34,0.21 0.84,0.46 0.84,1.05 0,0.5 -0.34,0.75 -0.7,1 -1.1,0.75 -1.64,1.64 -2.05,2.83 -0.09,0.45 -0.3,1.11 -0.99,1.11 -0.7,0 -1,-0.66 -1,-1.05 0,-0.25 0.4,-1.84 1.19,-2.89 l -16.78,0 c -0.84,0 -1.75,0 -1.75,-1 0,-1 0.91,-1 1.75,-1 z"
         inkscape:connector-curvature="0"
         style="fill:#000000;fill-opacity:1;stroke:#000000;stroke-width:0.76252723;stroke-miterlimit:4;stroke-dasharray:none;stroke-opacity:1" /><path
         id="path8957"
         d="m 474.09,425.03 -0.08,0.17 -0.09,0.17 -0.09,0.16 -0.1,0.16 -0.1,0.16 -0.1,0.16 -0.1,0.15 -0.11,0.14 -0.12,0.15 -0.11,0.13 -0.12,0.14 -0.13,0.13 -0.12,0.12 -0.14,0.12 -0.13,0.11 -0.14,0.11 -0.14,0.11 -0.15,0.09 -0.15,0.1 -0.16,0.08 -0.16,0.08 -0.16,0.08 -0.17,0.06 -0.17,0.07 -0.18,0.05 -0.18,0.05 -0.18,0.04 -0.19,0.03 -0.2,0.03 -0.19,0.02 -0.21,0.01 -0.2,0 0.04,-1.09 c 3.24,0 3.94,-4.08 3.94,-4.37 0,-0.32 -0.09,-0.61 -0.14,-0.86 l -2.5,-9.77 c -0.25,-0.89 -0.25,-0.98 -1,-1.84 -2.19,-2.74 -4.24,-3.53 -5.63,-3.53 -2.48,0 -3.18,2.73 -3.18,4.68 0,2.49 1.59,8.61 2.73,10.91 1.55,2.94 3.8,4.78 5.78,4.78 l -0.04,1.09 c -5.83,0 -12,-7.31 -12,-14.59 0,-4.69 2.73,-7.97 6.62,-7.97 0.98,0 3.48,0.21 6.47,3.74 0.41,-2.1 2.14,-3.74 4.53,-3.74 1.75,0 2.89,1.14 3.69,2.74 0.84,1.79 1.5,4.84 1.5,4.93 0,0.5 -0.45,0.5 -0.6,0.5 -0.5,0 -0.54,-0.2 -0.7,-0.9 -0.84,-3.24 -1.75,-6.17 -3.78,-6.17 -1.34,0 -1.5,1.29 -1.5,2.29 0,1.1 0.09,1.49 0.64,3.69 0.56,2.09 0.66,2.59 1.11,4.48 l 1.78,6.97 c 0.36,1.39 0.36,1.5 0.36,1.69 0,0.86 -0.61,1.36 -1.45,1.36 -1.19,0 -1.94,-1.11 -2.1,-2.2 z"
         inkscape:connector-curvature="0"
         style="fill:#000000;fill-opacity:1;stroke:#000000;stroke-width:0.76252723;stroke-miterlimit:4;stroke-dasharray:none;stroke-opacity:1" /><path
         id="path8959"
         d="m 512.33,420.04 -9.95,9.92 c -0.61,0.6 -0.71,0.71 -1.11,0.71 -0.49,0 -0.99,-0.46 -0.99,-1 0,-0.36 0.1,-0.46 0.64,-1 l 9.97,-10.02 -9.97,-10.01 c -0.54,-0.55 -0.64,-0.64 -0.64,-1 0,-0.55 0.5,-0.99 0.99,-0.99 0.4,0 0.5,0.1 1.11,0.69 l 9.9,9.92 10.31,-10.31 c 0.11,-0.05 0.46,-0.3 0.75,-0.3 0.6,0 1,0.44 1,0.99 0,0.11 0,0.31 -0.15,0.56 -0.05,0.09 -7.97,7.92 -10.46,10.45 l 9.11,9.13 c 0.25,0.29 1,0.93 1.25,1.23 0.05,0.11 0.25,0.3 0.25,0.66 0,0.54 -0.4,1 -1,1 -0.39,0 -0.59,-0.21 -1.14,-0.75 z"
         inkscape:connector-curvature="0"
         style="fill:#000000;fill-opacity:1;stroke:#000000;stroke-width:0.76252723;stroke-miterlimit:4;stroke-dasharray:none;stroke-opacity:1" /><path
         id="path8961"
         d="m 563.99,448.92 -0.07,-0.06 -0.07,-0.07 -0.08,-0.07 -0.08,-0.07 -0.08,-0.08 -0.09,-0.08 -0.09,-0.09 -0.1,-0.08 -0.09,-0.09 -0.1,-0.09 -0.2,-0.19 -0.19,-0.2 -0.19,-0.2 -0.09,-0.11 -0.09,-0.1 -0.09,-0.1 -0.08,-0.1 -0.08,-0.11 -0.08,-0.1 -0.07,-0.1 -0.07,-0.1 -0.05,-0.1 -0.06,-0.1 -0.04,-0.1 -0.04,-0.09 -0.03,-0.09 -0.03,-0.09 -0.01,-0.09 0,-0.09 c 0,-0.5 0.5,-1 1,-1 0.45,0 0.7,0.36 0.95,0.66 0.59,0.75 1.73,2.14 3.93,3.24 0.35,0.2 0.85,0.45 0.85,1.04 0,0.5 -0.35,0.75 -0.7,1 -1.1,0.75 -1.65,1.64 -2.05,2.83 -0.1,0.45 -0.3,1.11 -0.98,1.11 -0.71,0 -1,-0.66 -1,-1.05 0,-0.25 0.38,-1.84 1.18,-2.89 l -16.78,0 c -0.84,0 -1.75,0 -1.75,-1 0,-1 0.91,-1 1.75,-1 z"
         inkscape:connector-curvature="0"
         style="fill:#000000;fill-opacity:1;stroke:#000000;stroke-width:0.76252723;stroke-miterlimit:4;stroke-dasharray:none;stroke-opacity:1" /><path
         id="path8963"
         d="m 554.67,440.23 0,0 0,0.01 0,0 0,0.01 0,0.02 0,0.01 -0.01,0.02 0,0.02 0,0.02 -0.01,0.02 0,0.02 -0.01,0.02 -0.01,0.02 0,0.03 -0.02,0.02 -0.01,0.03 -0.01,0.02 -0.02,0.03 -0.02,0.02 -0.02,0.02 -0.02,0.03 -0.01,0.01 -0.01,0.01 -0.02,0.01 -0.01,0.01 -0.01,0.01 -0.02,0.01 -0.02,0.01 -0.01,0.01 -0.02,0.01 -0.02,0.01 -0.02,0 -0.02,0.01 -0.02,0.01 -0.02,0 -0.02,0.01 -0.02,0.01 -0.02,0 -0.03,0 -0.02,0.01 -0.03,0 -0.03,0 -0.02,0.01 -0.03,0 -0.03,0 c -1.16,0 -4.78,-0.41 -6.08,-0.5 -0.41,-0.05 -0.95,-0.1 -0.95,-1 0,-0.6 0.45,-0.6 1.2,-0.6 2.39,0 2.48,-0.34 2.48,-0.84 0,-0.36 -0.45,-2.05 -0.7,-3.09 l -4.08,-16.24 c -0.59,-2.5 -0.8,-3.3 -0.8,-5.03 0,-4.73 2.65,-7.83 6.33,-7.83 l 0,1.1 c -1.7,0 -3.34,1.34 -3.34,5.03 0,0.95 0,1.89 0.8,5.03 l 1.09,4.59 c 0.3,1.1 0.3,1.19 0.75,1.74 2.44,3.23 4.69,3.98 5.99,3.98 1.79,0 3.13,-1.48 3.13,-4.69 0,-2.93 -1.65,-8.65 -2.54,-10.56 -1.64,-3.33 -3.94,-5.12 -5.88,-5.12 l 0,-1.1 c 5.88,0 12,7.42 12,14.6 0,4.53 -2.64,7.96 -6.62,7.96 -2.28,0 -4.33,-1.43 -5.83,-2.98 z"
         inkscape:connector-curvature="0"
         style="fill:#000000;fill-opacity:1;stroke:#000000;stroke-width:0.76252723;stroke-miterlimit:4;stroke-dasharray:none;stroke-opacity:1" /></g></g><path
     sodipodi:nodetypes="cc"
     inkscape:connector-curvature="0"
     id="path9120"
     d="M 284.41014,170.82744 282.62369,51.166281"
     style="opacity:1;fill:none;fill-rule:evenodd;stroke:#000000;stroke-width:5;stroke-linecap:butt;stroke-linejoin:miter;stroke-miterlimit:4;stroke-dasharray:none;stroke-opacity:1;marker-end:url(#marker9122)" /></svg>