<?xml version="1.0" encoding="UTF-8" standalone="no"?>
<!-- Generator: Adobe Illustrator 16.0.4, SVG Export Plug-In . SVG Version: 6.00 Build 0)  -->

<svg
   xmlns:dc="http://purl.org/dc/elements/1.1/"
   xmlns:cc="http://creativecommons.org/ns#"
   xmlns:rdf="http://www.w3.org/1999/02/22-rdf-syntax-ns#"
   xmlns:svg="http://www.w3.org/2000/svg"
   xmlns="http://www.w3.org/2000/svg"
   xmlns:sodipodi="http://sodipodi.sourceforge.net/DTD/sodipodi-0.dtd"
   xmlns:inkscape="http://www.inkscape.org/namespaces/inkscape"
   version="1.1"
   id="Layer_1"
   x="0px"
   y="0px"
   width="477"
   height="261"
   viewBox="0 0 477 261"
   enable-background="new 0 0 550 150"
   xml:space="preserve"
   inkscape:version="0.91 r13725"
   sodipodi:docname="cello.svg"
   inkscape:export-filename="/home/ljma/aulas/2017-18/of/1-nts/figs/f20-cello.png"
   inkscape:export-xdpi="90"
   inkscape:export-ydpi="90"><sodipodi:namedview
     pagecolor="#ffffff"
     bordercolor="#666666"
     borderopacity="1"
     objecttolerance="10"
     gridtolerance="10"
     guidetolerance="10"
     inkscape:pageopacity="0"
     inkscape:pageshadow="2"
     inkscape:window-width="1348"
     inkscape:window-height="701"
     id="namedview239"
     showgrid="false"
     inkscape:zoom="0.87904125"
     inkscape:cx="450.35102"
     inkscape:cy="66.586851"
     inkscape:window-x="0"
     inkscape:window-y="0"
     inkscape:window-maximized="0"
     inkscape:current-layer="Layer_1" /><metadata
     id="metadata243"><rdf:RDF><cc:Work
         rdf:about=""><dc:format>image/svg+xml</dc:format><dc:type
           rdf:resource="http://purl.org/dc/dcmitype/StillImage" /><dc:title></dc:title></cc:Work></rdf:RDF></metadata><defs
     id="defs241" /><g
     id="g3"
     transform="translate(-30,121)"><g
       id="g5"><path
         id="path7"
         d="m 41.521,79.949 -1.627,0.535 0,2.908 1.627,0.546 0,0.977 -7.086,-2.404 0,-1.239 7.086,-2.394 0,1.071 z m -5.322,1.732 c -0.284,0.094 -0.578,0.178 -0.893,0.252 l 0,0.01 c 0.305,0.074 0.599,0.158 0.871,0.252 l 2.939,0.976 0,-2.467 -2.917,0.977 z"
         inkscape:connector-curvature="0" /><path
         id="path9"
         d="m 41.521,73.764 -3.422,0 c -0.798,0 -1.155,0.084 -1.155,0.452 0,0.483 0.913,0.998 2.037,0.998 l 2.541,0 0,0.786 -3.38,0 c -0.84,0 -1.197,0.095 -1.197,0.473 0,0.482 0.913,0.966 2.037,0.966 l 2.541,0 0,0.798 -5.218,0 0,-0.756 c 0.378,0 0.756,0.031 1.176,0.084 l 0.011,-0.011 c -0.777,-0.21 -1.291,-0.651 -1.291,-1.302 0,-0.651 0.493,-0.924 1.27,-0.924 -0.756,-0.21 -1.27,-0.651 -1.27,-1.312 0,-0.745 0.598,-1.05 1.68,-1.05 l 3.643,0 0,0.798 z"
         inkscape:connector-curvature="0" /><path
         id="path11"
         d="m 41.584,69.543 c 0,0.378 -0.032,0.734 -0.094,0.976 l 2.624,0 0,0.945 -7.811,0 0,-0.903 c 0.294,0 0.756,0.01 1.208,0.094 l 0.01,-0.021 c -0.871,-0.315 -1.322,-0.956 -1.322,-1.795 0,-1.197 0.871,-2.016 2.467,-2.016 1.858,0.001 2.918,1.156 2.918,2.72 z m -4.608,-0.451 c 0,0.945 1.187,1.428 2.1,1.428 l 1.596,0 c 0.105,-0.284 0.179,-0.578 0.179,-1.018 0,-0.935 -0.651,-1.69 -2.1,-1.69 -1.124,-10e-4 -1.775,0.492 -1.775,1.28 z"
         inkscape:connector-curvature="0" /><path
         id="path13"
         d="m 34.582,63.369 0,1.911 -0.724,0 0,-2.855 6.918,0 0,-1.9 0.745,0 0,4.756 -0.745,0 0,-1.911 -6.194,0 z"
         inkscape:connector-curvature="0" /><path
         id="path15"
         d="m 34.677,55.757 c 0.409,0 0.745,0.336 0.745,0.756 0,0.42 -0.336,0.766 -0.745,0.766 -0.42,0 -0.756,-0.346 -0.756,-0.766 0,-0.42 0.336,-0.756 0.756,-0.756 z m 6.844,3.139 -0.745,0 0,-1.953 -3.748,0 0,1.795 -0.725,0 0,-2.74 4.473,0 0,-1.711 0.745,0 0,4.609 z"
         inkscape:connector-curvature="0" /><path
         id="path17"
         d="m 41.616,49.646 c 0,1.103 -0.504,1.795 -1.774,1.795 l -2.782,0 0,1.701 -0.756,0 0,-1.701 -1.69,0 -0.262,-0.944 1.952,0 0,-2.268 0.756,0 0,2.268 2.509,0 c 0.914,0 1.239,-0.473 1.239,-1.145 0,-0.347 -0.053,-0.787 -0.147,-1.113 l 0.777,-0.084 c 0.104,0.43 0.178,1.06 0.178,1.491 z"
         inkscape:connector-curvature="0" /><path
         id="path19"
         d="m 41.521,42.874 c -0.409,0 -0.893,-0.01 -1.197,-0.062 l -0.01,0.01 c 0.829,0.304 1.312,0.945 1.312,1.848 0,1.186 -0.746,1.564 -1.669,1.564 l -3.653,0 0,-0.944 3.37,0 c 0.735,0 1.176,-0.2 1.176,-0.882 0,-0.872 -0.997,-1.491 -2.142,-1.491 l -2.404,0 0,-0.944 5.218,0 0,0.901 z"
         inkscape:connector-curvature="0" /><path
         id="path21"
         d="m 41.521,36.542 c -0.294,0 -0.756,-0.011 -1.207,-0.095 l -0.011,0.021 c 0.861,0.304 1.323,0.955 1.323,1.795 0,1.197 -0.872,2.016 -2.467,2.016 -1.816,0 -2.929,-1.165 -2.929,-2.792 0,-0.304 0.011,-0.578 0.053,-0.903 l -2.425,0 0,-0.944 7.664,0 0,0.902 z m -4.43,0.042 c -0.074,0.315 -0.116,0.63 -0.116,0.935 0,0.986 0.599,1.774 2.1,1.774 1.124,0 1.774,-0.494 1.774,-1.281 0,-0.945 -1.187,-1.428 -2.1,-1.428 l -1.658,0 z"
         inkscape:connector-curvature="0" /><path
         id="path23"
         d="m 38.949,29.235 0,3.716 c 0.032,0.01 0.063,0.01 0.105,0.01 1.27,0 1.806,-0.714 1.806,-1.795 0,-0.535 -0.147,-1.271 -0.347,-1.68 l 0.777,-0.084 c 0.2,0.504 0.336,1.249 0.336,1.921 0,1.617 -0.85,2.604 -2.688,2.604 -1.564,0 -2.75,-0.976 -2.75,-2.478 0,-1.48 1.081,-2.236 2.278,-2.236 0.116,10e-4 0.305,10e-4 0.483,0.022 z m -2.047,2.257 c 0,0.704 0.515,1.323 1.365,1.428 l 0,-2.74 c -0.85,-0.011 -1.365,0.567 -1.365,1.312 z"
         inkscape:connector-curvature="0" /></g></g><g
     id="g25"
     transform="translate(-30,121)"><g
       id="g27"><path
         id="path29"
         d="m 361.146,130.266 0,6.289 -0.976,0 0,-6.289 -2.132,0 0,-0.798 5.229,0 0,0.798 -2.121,0 z"
         inkscape:connector-curvature="0" /><path
         id="path31"
         d="m 364.758,136.555 0,-0.746 1.953,0 0,-3.748 -1.795,0 0,-0.724 2.739,0 0,4.472 1.712,0 0,0.746 -4.609,0 z m 3.138,-6.845 c 0,0.41 -0.336,0.746 -0.756,0.746 -0.42,0 -0.766,-0.336 -0.766,-0.746 0,-0.42 0.346,-0.756 0.766,-0.756 0.42,0 0.756,0.336 0.756,0.756 z"
         inkscape:connector-curvature="0" /><path
         id="path33"
         d="m 375.089,136.555 0,-3.422 c 0,-0.798 -0.084,-1.155 -0.451,-1.155 -0.483,0 -0.997,0.914 -0.997,2.037 l 0,2.541 -0.787,0 0,-3.38 c 0,-0.84 -0.095,-1.197 -0.473,-1.197 -0.483,0 -0.966,0.914 -0.966,2.037 l 0,2.541 -0.798,0 0,-5.217 0.756,0 c 0,0.378 -0.031,0.756 -0.084,1.176 l 0.01,0.01 c 0.211,-0.777 0.651,-1.292 1.303,-1.292 0.65,0 0.924,0.494 0.924,1.271 0.209,-0.756 0.65,-1.271 1.312,-1.271 0.745,0 1.05,0.599 1.05,1.68 l 0,3.643 -0.799,0 z"
         inkscape:connector-curvature="0" /><path
         id="path35"
         d="m 381.819,133.983 -3.716,0 c -0.011,0.031 -0.011,0.062 -0.011,0.104 0,1.271 0.714,1.806 1.795,1.806 0.535,0 1.271,-0.146 1.68,-0.346 l 0.084,0.777 c -0.504,0.199 -1.249,0.336 -1.921,0.336 -1.617,0 -2.604,-0.851 -2.604,-2.688 0,-1.564 0.977,-2.75 2.478,-2.75 1.479,0 2.235,1.082 2.235,2.278 10e-4,0.115 10e-4,0.304 -0.02,0.483 z m -2.257,-2.047 c -0.703,0 -1.323,0.514 -1.428,1.365 l 2.74,0 c 0.011,-0.851 -0.566,-1.365 -1.312,-1.365 z"
         inkscape:connector-curvature="0" /><path
         id="path37"
         d="m 393.285,138.917 c -1.764,-1.606 -2.582,-3.254 -2.582,-5.28 0,-2.142 1.028,-3.916 2.604,-5.354 l 0.535,0.556 c -1.418,1.386 -2.194,3.023 -2.194,4.725 0,1.764 0.735,3.359 2.204,4.787 l -0.567,0.566 z"
         inkscape:connector-curvature="0" /><path
         id="path39"
         d="m 400.289,136.555 0,-3.422 c 0,-0.798 -0.084,-1.155 -0.451,-1.155 -0.482,0 -0.997,0.914 -0.997,2.037 l 0,2.541 -0.788,0 0,-3.38 c 0,-0.84 -0.094,-1.197 -0.472,-1.197 -0.483,0 -0.966,0.914 -0.966,2.037 l 0,2.541 -0.798,0 0,-5.217 0.756,0 c 0,0.378 -0.032,0.756 -0.084,1.176 l 0.011,0.01 c 0.209,-0.777 0.65,-1.292 1.301,-1.292 0.651,0 0.924,0.494 0.924,1.271 0.211,-0.756 0.651,-1.271 1.312,-1.271 0.746,0 1.05,0.599 1.05,1.68 l 0,3.643 -0.798,0 z"
         inkscape:connector-curvature="0" /><path
         id="path41"
         d="m 402.558,136.555 0,-0.746 1.953,0 0,-3.748 -1.796,0 0,-0.724 2.74,0 0,4.472 1.711,0 0,0.746 -4.608,0 z m 3.139,-6.845 c 0,0.41 -0.336,0.746 -0.756,0.746 -0.42,0 -0.767,-0.336 -0.767,-0.746 0,-0.42 0.347,-0.756 0.767,-0.756 0.42,0 0.756,0.336 0.756,0.756 z"
         inkscape:connector-curvature="0" /><path
         id="path43"
         d="m 410.685,129.616 -1.911,0 0,-0.725 2.855,0 0,6.918 1.9,0 0,0.746 -4.756,0 0,-0.746 1.911,0 0,-6.193 z"
         inkscape:connector-curvature="0" /><path
         id="path45"
         d="m 416.984,129.616 -1.911,0 0,-0.725 2.855,0 0,6.918 1.9,0 0,0.746 -4.756,0 0,-0.746 1.911,0 0,-6.193 z"
         inkscape:connector-curvature="0" /><path
         id="path47"
         d="m 421.457,136.555 0,-0.746 1.953,0 0,-3.748 -1.795,0 0,-0.724 2.739,0 0,4.472 1.712,0 0,0.746 -4.609,0 z m 3.139,-6.845 c 0,0.41 -0.336,0.746 -0.756,0.746 -0.42,0 -0.766,-0.336 -0.766,-0.746 0,-0.42 0.346,-0.756 0.766,-0.756 0.42,0 0.756,0.336 0.756,0.756 z"
         inkscape:connector-curvature="0" /><path
         id="path49"
         d="m 429.646,136.67 c -0.714,0 -1.354,-0.084 -1.868,-0.263 l 0.126,-0.871 c 0.504,0.241 1.112,0.388 1.857,0.388 0.631,0 1.26,-0.262 1.26,-0.788 0,-1.26 -3.148,-0.409 -3.148,-2.372 0,-0.851 0.756,-1.543 2.246,-1.543 0.588,0 1.154,0.074 1.574,0.178 l -0.094,0.777 c -0.525,-0.179 -1.039,-0.242 -1.554,-0.242 -0.777,0 -1.134,0.315 -1.134,0.724 0,1.187 3.16,0.41 3.16,2.352 10e-4,1.157 -1.196,1.66 -2.425,1.66 z"
         inkscape:connector-curvature="0" /><path
         id="path51"
         d="m 438.519,133.983 -3.716,0 c -0.011,0.031 -0.011,0.062 -0.011,0.104 0,1.271 0.714,1.806 1.795,1.806 0.535,0 1.271,-0.146 1.68,-0.346 l 0.084,0.777 c -0.504,0.199 -1.249,0.336 -1.921,0.336 -1.617,0 -2.604,-0.851 -2.604,-2.688 0,-1.564 0.977,-2.75 2.478,-2.75 1.479,0 2.235,1.082 2.235,2.278 0,0.115 0,0.304 -0.02,0.483 z m -2.257,-2.047 c -0.703,0 -1.323,0.514 -1.428,1.365 l 2.74,0 c 0.01,-0.851 -0.567,-1.365 -1.312,-1.365 z"
         inkscape:connector-curvature="0" /><path
         id="path53"
         d="m 442.865,136.649 c -1.711,0 -2.604,-0.966 -2.604,-2.53 0,-1.69 1.051,-2.876 2.888,-2.876 0.566,0 1.123,0.105 1.543,0.252 l -0.168,0.84 c -0.378,-0.179 -0.903,-0.305 -1.396,-0.305 -1.134,0 -1.858,0.777 -1.858,1.953 0,1.028 0.578,1.848 1.785,1.848 0.546,0 1.092,-0.116 1.522,-0.315 l 0.157,0.819 c -0.482,0.188 -1.217,0.314 -1.869,0.314 z"
         inkscape:connector-curvature="0" /><path
         id="path55"
         d="m 448.756,136.66 c -1.438,0 -2.436,-0.829 -2.436,-2.667 0,-1.533 1.039,-2.761 2.635,-2.761 1.344,0 2.436,0.746 2.436,2.625 0,1.574 -1.081,2.803 -2.635,2.803 z m 0.115,-4.64 c -0.787,0 -1.563,0.588 -1.563,1.879 0,1.26 0.577,1.963 1.554,1.963 0.809,0 1.554,-0.619 1.554,-1.953 -10e-4,-1.186 -0.547,-1.889 -1.545,-1.889 z"
         inkscape:connector-curvature="0" /><path
         id="path57"
         d="m 456.337,136.555 0,-3.37 c 0,-0.735 -0.2,-1.176 -0.882,-1.176 -0.871,0 -1.491,0.997 -1.491,2.142 l 0,2.404 -0.944,0 0,-5.217 0.902,0 c 0,0.409 -0.01,0.892 -0.062,1.196 l 0.01,0.011 c 0.305,-0.829 0.945,-1.312 1.848,-1.312 1.187,0 1.564,0.746 1.564,1.669 l 0,3.653 -0.945,0 z"
         inkscape:connector-curvature="0" /><path
         id="path59"
         d="m 462.71,136.555 c 0,-0.294 0.011,-0.756 0.095,-1.208 l -0.021,-0.01 c -0.305,0.861 -0.955,1.323 -1.795,1.323 -1.197,0 -2.016,-0.871 -2.016,-2.467 0,-1.816 1.165,-2.929 2.793,-2.929 0.304,0 0.577,0.01 0.902,0.052 l 0,-2.425 0.945,0 0,7.664 -0.903,0 z m -0.042,-4.43 c -0.314,-0.073 -0.63,-0.115 -0.935,-0.115 -0.986,0 -1.774,0.598 -1.774,2.1 0,1.123 0.494,1.774 1.281,1.774 0.945,0 1.428,-1.186 1.428,-2.1 l 0,-1.659 z"
         inkscape:connector-curvature="0" /><path
         id="path61"
         d="m 467.446,136.67 c -0.714,0 -1.354,-0.084 -1.868,-0.263 l 0.126,-0.871 c 0.504,0.241 1.112,0.388 1.858,0.388 0.629,0 1.26,-0.262 1.26,-0.788 0,-1.26 -3.15,-0.409 -3.15,-2.372 0,-0.851 0.756,-1.543 2.247,-1.543 0.588,0 1.155,0.074 1.575,0.178 l -0.095,0.777 c -0.525,-0.179 -1.04,-0.242 -1.554,-0.242 -0.777,0 -1.134,0.315 -1.134,0.724 0,1.187 3.159,0.41 3.159,2.352 10e-4,1.157 -1.195,1.66 -2.424,1.66 z"
         inkscape:connector-curvature="0" /><path
         id="path63"
         d="m 472.97,128.282 c 1.764,1.617 2.582,3.254 2.582,5.291 0,2.142 -1.028,3.916 -2.604,5.343 l -0.535,-0.546 c 1.417,-1.386 2.194,-3.034 2.194,-4.724 0,-1.764 -0.735,-3.37 -2.205,-4.787 l 0.568,-0.577 z"
         inkscape:connector-curvature="0" /></g></g><line
     id="line141"
     y2="230.55499"
     x2="37.193001"
     y1="225.157"
     x1="37.193001"
     style="fill:none;stroke:#cccccc;stroke-width:0.75" /><line
     id="line143"
     y2="131.203"
     x2="446.396"
     y1="131.203"
     x1="37.022003"
     style="fill:none;stroke:#cccccc;stroke-width:0.75" /><line
     id="line145"
     y2="225.157"
     x2="446.396"
     y1="225.157"
     x1="37.022003"
     style="fill:none;stroke:#cccccc;stroke-width:0.75" /><line
     id="line147"
     y2="178.19299"
     x2="446.396"
     y1="178.19299"
     x1="37.022003"
     style="fill:none;stroke:#cccccc;stroke-width:0.75" /><g
     id="g149"
     transform="translate(-30,121)"><text
       id="text151"
       font-size="9"
       transform="translate(54.8516,59.3027)"
       style="font-size:9px;font-family:TheSansMono-Light">0</text>
</g><g
     id="g153"
     transform="translate(-30,121)"><g
       id="g155"><path
         id="path157"
         d="m 69.007,117.366 c 0,1.989 -0.738,3.088 -2.035,3.088 -1.144,0 -1.917,-1.071 -1.936,-3.007 0,-1.963 0.846,-3.043 2.035,-3.043 1.234,0 1.936,1.098 1.936,2.962 z m -3.178,0.09 c 0,1.521 0.468,2.386 1.188,2.386 0.81,0 1.197,-0.945 1.197,-2.44 0,-1.44 -0.369,-2.385 -1.188,-2.385 -0.693,0 -1.197,0.846 -1.197,2.439 z"
         inkscape:connector-curvature="0" /></g></g><g
     id="g159"
     transform="translate(-30,121)"><g
       id="g161"><path
         id="path163"
         d="m 126.95,115.242 -0.018,0 -1.017,0.549 -0.153,-0.603 1.279,-0.684 0.675,0 0,5.852 -0.765,0 0,-5.114 z"
         inkscape:connector-curvature="0" /></g></g><g
     id="g165"
     transform="translate(-30,121)"><g
       id="g167"><path
         id="path169"
         d="m 185.848,120.355 0,-0.486 0.621,-0.603 c 1.494,-1.422 2.169,-2.179 2.179,-3.061 0,-0.594 -0.288,-1.143 -1.162,-1.143 -0.531,0 -0.972,0.27 -1.242,0.495 l -0.252,-0.558 c 0.405,-0.342 0.981,-0.594 1.656,-0.594 1.26,0 1.792,0.864 1.792,1.702 0,1.08 -0.783,1.953 -2.017,3.142 l -0.468,0.432 0,0.018 2.628,0 0,0.657 -3.735,0 z"
         inkscape:connector-curvature="0" /></g></g><g
     id="g171"
     transform="translate(-30,121)"><g
       id="g173"><path
         id="path175"
         d="m 57.449,7.744 0,2.116 2.035,0 0,0.54 -2.035,0 0,2.134 -0.576,0 0,-2.134 -2.035,0 0,-0.54 2.035,0 0,-2.116 0.576,0 z"
         inkscape:connector-curvature="0" /></g></g><g
     id="g177"
     transform="translate(-30,121)"><g
       id="g179"><path
         id="path181"
         d="m 58.272,103.486 0,0.585 -2.224,0 0,-0.585 2.224,0 z"
         inkscape:connector-curvature="0" /></g></g><path
     id="path183"
     d="m 37.022,178.193 c 0,0 1.981,-9.463 1.981,-12.4 0,-2.937 1.285,-6.94 2.478,-7.505 1.115,-0.527 1.735,0.815 2.479,2.447 0.744,1.632 1.115,2.447 1.61,3.915 0.495,1.469 1.115,2.938 1.983,2.284 0.866,-0.652 1.486,-4.405 1.486,-5.058 0,-0.653 1.61,-10.769 2.105,-13.053 0.496,-2.284 1.363,-6.853 1.487,-7.505 0.124,-0.652 0.371,-2.773 1.487,-2.61 1.114,0.163 2.105,1.142 2.725,2.773 0.62,1.632 1.487,3.916 2.603,4.079 1.114,0.163 3.469,1.632 3.965,0.489 0.495,-1.142 2.328,-3.925 2.774,-4.488 0.506,-0.638 1.313,-1.223 2.43,-0.08 1.114,1.142 1.238,4.405 1.981,5.711 0.743,1.306 2.603,4.241 2.726,5.384 0.124,1.143 0.496,2.284 0.867,3.59 0.372,1.305 1.239,1.795 1.61,3.263 0.372,1.469 0.496,4.242 1.363,4.568 0.868,0.327 2.726,1.795 4.584,-0.326 1.858,-2.121 2.354,0.979 2.603,1.469 0.247,0.489 1.114,3.1 1.114,4.405 0,1.305 0.62,5.058 1.115,5.71 0.495,0.653 0.867,4.079 0.867,4.079 0,0 0.495,1.959 1.362,3.59 0.868,1.632 1.611,3.59 2.354,3.753 0.743,0.163 1.948,0.622 2.668,1.318 0.947,0.915 1.669,0.803 2.04,1.781 0.372,0.979 2.106,3.264 2.85,5.547 0.744,2.284 2.597,0.275 3.346,0.163 1.189,-0.178 1.858,1.306 2.478,1.306 0.62,0 2.726,0 2.974,-0.815 0.247,-0.815 1.61,-2.284 2.354,-3.427 0.744,-1.142 1.363,-3.915 2.726,-4.405 1.363,-0.489 2.104,-2.09 3.324,-0.427 0.735,1.002 1.385,0.753 1.508,2.548 0,0 0.495,2.447 0.495,4.242 0,0.673 0.373,1.469 0.868,2.121 0.495,0.653 1.734,-0.652 2.229,0.815 0.496,1.469 0.868,2.938 1.115,4.08 0.248,1.142 0.124,1.794 0.867,2.61 0.744,0.815 1.415,1.665 2.321,0.926 1.052,-0.857 1.644,-2.395 1.892,-4.026 0.248,-1.631 1.858,-6.853 1.982,-7.342 0.124,-0.49 1.982,-6.2 2.602,-7.995 0.62,-1.795 0.945,-3.461 1.239,-4.079 0.763,-1.603 1.142,-5.231 2.804,-2.904 1.154,1.616 0.912,2.089 0.912,4.046 0,1.959 0.373,6.527 0.991,8.321 0.62,1.796 1.487,8.647 1.487,10.769 0,2.122 0.372,5.222 0.372,5.875 0,0.652 0.269,3.341 1.075,3.986 1.768,1.412 2.326,-2.294 2.945,-4.904 0.621,-2.611 1.184,-3.978 1.679,-7.403 0.495,-3.427 2.229,-13.054 2.229,-15.337 0,-2.285 0.3,-5.242 0.992,-7.016 0.441,-1.135 0.316,-2.299 0.927,-2.908 0.844,-0.842 1.873,-0.555 2.046,1.275 0.215,2.267 0.496,2.938 0.868,4.732 0.371,1.795 1.61,3.589 1.61,5.547 0,1.958 0,3.101 0.496,4.405 0.495,1.306 0.247,3.427 1.238,4.079 0.991,0.652 1.99,-0.938 2.105,-2.773 0.136,-2.139 2.345,-6.821 3.522,-8.206 0.382,-0.448 1.428,-3.005 2.55,-3.052 1.217,-0.051 1.981,0.652 2.478,1.957 0.495,1.307 1.981,4.732 3.345,5.059 1.362,0.326 2.105,-0.816 2.602,-2.121 0.495,-1.306 0.912,-2.817 1.611,-6.689 0.699,-3.872 1.76,-9.556 2.059,-12.563 0.3,-3.008 1.287,-6.94 2.479,-7.505 1.115,-0.527 1.734,0.815 2.479,2.447 0.743,1.632 1.114,2.447 1.61,3.915 0.496,1.469 1.114,2.938 1.982,2.284 0.866,-0.652 1.486,-4.405 1.486,-5.058 0,-0.653 1.611,-10.769 2.106,-13.053 0.496,-2.284 1.363,-6.853 1.486,-7.505 0.124,-0.652 0.372,-2.773 1.487,-2.61 1.114,0.163 2.106,1.142 2.726,2.773 0.62,1.631 1.486,3.916 2.602,4.079 1.116,0.163 3.469,1.632 3.965,0.489 0.495,-1.142 2.328,-3.925 2.776,-4.488 0.505,-0.638 1.312,-1.223 2.428,-0.08 1.114,1.142 1.238,4.405 1.981,5.711 0.744,1.306 2.602,4.241 2.726,5.384 0.125,1.143 0.496,2.284 0.868,3.59 0.371,1.305 1.238,1.795 1.61,3.263 0.372,1.469 0.496,4.242 1.362,4.568 0.868,0.327 2.726,1.795 4.584,-0.326 1.859,-2.121 2.354,0.979 2.603,1.469 0.248,0.489 1.114,3.1 1.114,4.405 0,1.305 0.62,5.058 1.115,5.71 0.496,0.653 0.868,4.079 0.868,4.079 0,0 0.495,1.959 1.362,3.59 0.867,1.632 1.61,3.59 2.354,3.753 0.743,0.163 1.947,0.622 2.667,1.318 0.947,0.915 1.669,0.803 2.041,1.781 0.372,0.979 2.105,3.264 2.85,5.547 0.743,2.284 2.596,0.275 3.345,0.163 1.189,-0.178 1.858,1.306 2.478,1.306 0.62,0 2.727,0 2.974,-0.815 0.249,-0.815 1.612,-2.284 2.356,-3.427 0.74,-1.142 1.361,-3.915 2.725,-4.405 1.361,-0.489 2.104,-2.09 3.324,-0.427 0.734,1.002 1.383,0.753 1.508,2.548 0,0 0.494,2.447 0.494,4.242 0,0.673 0.373,1.469 0.867,2.121 0.496,0.653 1.734,-0.652 2.23,0.815 0.496,1.469 0.867,2.938 1.115,4.08 0.25,1.142 0.123,1.794 0.867,2.61 0.744,0.815 1.416,1.665 2.32,0.926 1.053,-0.857 1.645,-2.395 1.893,-4.026 0.246,-1.631 1.857,-6.853 1.982,-7.342 0.125,-0.49 1.982,-6.2 2.604,-7.995 0.615,-1.795 0.941,-3.461 1.236,-4.079 0.764,-1.603 1.143,-5.231 2.803,-2.904 1.156,1.616 0.914,2.089 0.914,4.046 0,1.959 0.373,6.527 0.992,8.321 0.619,1.796 1.486,8.647 1.486,10.769 0,2.122 0.371,5.222 0.371,5.875 0,0.652 0.27,3.341 1.076,3.986 1.768,1.412 2.326,-2.294 2.945,-4.904 0.621,-2.611 1.184,-3.978 1.678,-7.403 0.496,-3.427 2.23,-13.054 2.23,-15.337 0,-2.285 0.301,-5.242 0.992,-7.016 0.441,-1.135 0.316,-2.299 0.928,-2.908 0.844,-0.842 1.873,-0.555 2.045,1.275 0.215,2.267 0.496,2.938 0.867,4.732 0.371,1.794 1.611,3.589 1.611,5.547 0,1.958 0,3.101 0.494,4.405 0.496,1.306 0.248,3.427 1.238,4.079 0.994,0.652 1.992,-0.938 2.107,-2.773 0.135,-2.139 2.344,-6.821 3.523,-8.206 0.381,-0.448 1.426,-3.005 2.547,-3.052 1.219,-0.051 1.984,0.652 2.479,1.957 0.494,1.307 1.982,4.732 3.346,5.059 1.361,0.326 2.105,-0.816 2.602,-2.121 0.496,-1.306 0.621,-3.666 1.611,-6.689 0.551,-3.447 1.498,-8.844 2.027,-12.563 0.533,-3.72 1.285,-6.94 2.479,-7.505 1.117,-0.527 1.734,0.815 2.479,2.447 0.745,1.632 1.113,2.447 1.611,3.915 0.496,1.469 1.113,2.938 1.982,2.284 0.865,-0.652 1.486,-4.405 1.486,-5.058 0,-0.653 1.609,-10.769 2.105,-13.053 0.496,-2.284 1.363,-6.853 1.486,-7.505 0.123,-0.652 0.373,-2.773 1.486,-2.61 1.117,0.163 2.105,1.142 2.727,2.773 0.622,1.631 1.486,3.916 2.604,4.079 1.111,0.163 3.469,1.632 3.963,0.489 0.494,-1.142 2.328,-3.925 2.775,-4.488 0.506,-0.638 1.312,-1.223 2.43,-0.08 1.113,1.142 1.238,4.405 1.98,5.711 0.744,1.306 2.602,4.241 2.727,5.384 0.125,1.143 0.494,2.284 0.867,3.59 0.371,1.305 1.24,1.795 1.609,3.263 0.373,1.469 0.498,4.242 1.365,4.568 0.865,0.327 2.725,1.795 4.582,-0.326 1.857,-2.121 2.355,0.979 2.602,1.469 0.25,0.489 1.115,3.1 1.115,4.405 0,1.305 0.621,5.058 1.115,5.71 0.494,0.653 0.869,4.079 0.869,4.079 0,0 0.494,1.959 1.361,3.59 0.867,1.632 1.611,3.59 2.354,3.753 0.744,0.163 1.947,0.622 2.668,1.318 0.947,0.915 1.668,0.803 2.043,1.781 0.369,0.979 2.105,3.264 2.848,5.547 0.744,2.284 2.596,0.275 3.346,0.163 1.189,-0.178 1.857,1.306 2.479,1.306 0.617,0 2.723,0 2.971,-0.815 0.25,-0.815 1.611,-2.284 2.355,-3.427 0.744,-1.142 1.363,-3.915 2.725,-4.405 1.365,-0.489 2.105,-2.09 3.326,-0.427 0.734,1.002 1.385,0.753 1.508,2.548 0,0 0.492,2.447 0.492,4.242 0,0.673 0.375,1.469 0.869,2.121 0.496,0.653 1.734,-0.652 2.23,0.815 0.494,1.469 0.867,2.938 1.113,4.08 0.25,1.142 0.125,1.794 0.867,2.61 0.744,0.815 1.418,1.665 2.322,0.926 1.053,-0.857 1.645,-2.395 1.891,-4.026 0.248,-1.631 1.859,-6.853 1.982,-7.342 0.125,-0.49 1.984,-6.2 2.602,-7.995 0.621,-1.795 0.947,-3.461 1.242,-4.079 0.762,-1.603 1.141,-5.231 2.801,-2.904 1.156,1.616 0.912,2.089 0.912,4.046 0,1.959 0.375,6.527 0.992,8.321 0.619,1.796 1.488,8.647 1.488,10.769 0,2.122 0.373,5.222 0.373,5.875 0,0.652 0.266,3.341 1.074,3.986 1.77,1.412 2.326,-2.294 2.945,-4.904 0.621,-2.611 1.184,-3.978 1.678,-7.403 0.496,-3.427 2.23,-13.054 2.23,-15.337 0,-2.285 0.299,-5.242 0.99,-7.016 0.441,-1.135 0.316,-2.299 0.928,-2.908 0.844,-0.842 1.873,-0.555 2.045,1.275 0.217,2.267 0.498,2.938 0.869,4.732 0.371,1.794 1.611,3.589 1.611,5.547 0,1.958 0,3.101 0.494,4.405 0.498,1.306 0.25,3.427 1.238,4.079 0.992,0.652 1.992,-0.938 2.107,-2.773 0.135,-2.139 2.346,-6.821 3.521,-8.206 0.381,-0.448 1.43,-3.005 2.551,-3.052 1.217,-0.051 1.98,0.652 2.477,1.957 0.494,1.307 1.98,4.732 3.346,5.059 1.361,0.326 2.104,-0.816 2.602,-2.121"
     inkscape:connector-curvature="0"
     style="fill:none;stroke:#000000;stroke-width:0.75;stroke-linecap:round" /><path
     id="path185"
     d="M 174.003,178.193"
     inkscape:connector-curvature="0"
     style="fill:none;stroke:#000000;stroke-width:0.75;stroke-linecap:round" /><line
     id="line187"
     y2="230.55499"
     x2="173.948"
     y1="126.504"
     x1="173.948"
     style="fill:none;stroke:#000000;stroke-width:0.375" /><line
     id="line189"
     y2="230.55499"
     x2="311.07001"
     y1="126.504"
     x1="311.07001"
     style="fill:none;stroke:#000000;stroke-width:0.375" /><g
     id="g191"
     transform="translate(-30,121)"><line
       id="line193"
       y2="104.157"
       x2="187.53799"
       y1="109.555"
       x1="187.53799"
       style="fill:none;stroke:#cccccc;stroke-width:0.75" /><line
       id="line195"
       y2="104.157"
       x2="127.365"
       y1="109.555"
       x1="127.365"
       style="fill:none;stroke:#cccccc;stroke-width:0.75" /><line
       id="line197"
       y2="104.157"
       x2="67.193001"
       y1="109.555"
       x1="67.193001"
       style="fill:none;stroke:#cccccc;stroke-width:0.75" /></g><g
     id="g199"
     transform="translate(-30,121)"><g
       id="g201"><path
         id="path203"
         d="m 245.893,119.446 c 0.225,0.144 0.747,0.369 1.296,0.369 1.017,0 1.333,-0.648 1.323,-1.134 -0.009,-0.819 -0.747,-1.17 -1.512,-1.17 l -0.441,0 0,-0.594 0.441,0 c 0.576,0 1.305,-0.297 1.305,-0.99 0,-0.468 -0.297,-0.882 -1.026,-0.882 -0.468,0 -0.918,0.207 -1.17,0.387 l -0.207,-0.576 c 0.306,-0.225 0.9,-0.45 1.531,-0.45 1.152,0 1.674,0.684 1.674,1.396 0,0.603 -0.36,1.116 -1.08,1.377 l 0,0.018 c 0.72,0.144 1.305,0.685 1.305,1.504 0,0.936 -0.729,1.755 -2.134,1.755 -0.657,0 -1.233,-0.207 -1.521,-0.396 l 0.216,-0.614 z"
         inkscape:connector-curvature="0" /></g></g><g
     id="g205"
     transform="translate(-30,121)"><g
       id="g207"><path
         id="path209"
         d="m 308.528,120.355 0,-1.593 -2.719,0 0,-0.522 2.611,-3.736 0.854,0 0,3.637 0.819,0 0,0.622 -0.819,0 0,1.593 -0.746,0 z m 0,-2.215 0,-1.954 c 0,-0.306 0.01,-0.612 0.027,-0.918 l -0.027,0 c -0.18,0.342 -0.324,0.594 -0.485,0.864 l -1.432,1.99 0,0.018 1.917,0 z"
         inkscape:connector-curvature="0" /></g></g><g
     id="g211"
     transform="translate(-30,121)"><g
       id="g213"><path
         id="path215"
         d="m 370.206,115.169 -2.233,0 -0.225,1.503 c 0.135,-0.018 0.261,-0.036 0.478,-0.036 0.45,0 0.899,0.099 1.26,0.315 0.459,0.261 0.838,0.765 0.838,1.503 0,1.143 -0.91,1.999 -2.179,1.999 -0.64,0 -1.18,-0.18 -1.459,-0.36 l 0.198,-0.603 c 0.243,0.144 0.72,0.324 1.251,0.324 0.748,0 1.387,-0.486 1.387,-1.27 -0.009,-0.756 -0.513,-1.296 -1.684,-1.296 -0.333,0 -0.594,0.036 -0.811,0.063 l 0.379,-2.809 2.8,0 0,0.667 z"
         inkscape:connector-curvature="0" /></g></g><g
     id="g217"
     transform="translate(-30,121)"><g
       id="g219"><path
         id="path221"
         d="m 430.29,115.062 c -0.162,-0.009 -0.369,0 -0.594,0.036 -1.243,0.208 -1.9,1.117 -2.035,2.08 l 0.027,0 c 0.279,-0.369 0.765,-0.675 1.413,-0.675 1.035,0 1.765,0.747 1.765,1.891 0,1.071 -0.729,2.062 -1.944,2.062 -1.252,0 -2.071,-0.972 -2.071,-2.494 0,-1.152 0.415,-2.062 0.991,-2.638 0.485,-0.477 1.134,-0.774 1.872,-0.864 0.234,-0.036 0.433,-0.045 0.576,-0.045 l 0,0.647 z m -0.225,3.376 c 0,-0.837 -0.478,-1.341 -1.207,-1.341 -0.477,0 -0.918,0.297 -1.134,0.72 -0.055,0.09 -0.091,0.207 -0.091,0.351 0.019,0.963 0.46,1.674 1.288,1.674 0.684,0 1.144,-0.567 1.144,-1.404 z"
         inkscape:connector-curvature="0" /></g></g><g
     id="g223"
     transform="translate(-30,121)"><line
       id="line225"
       y2="104.157"
       x2="307.88101"
       y1="109.555"
       x1="307.88101"
       style="fill:none;stroke:#cccccc;stroke-width:0.75" /></g><g
     id="g227"
     transform="translate(-30,121)"><line
       id="line229"
       y2="104.157"
       x2="247.328"
       y1="109.555"
       x1="247.328"
       style="fill:none;stroke:#cccccc;stroke-width:0.75" /></g><g
     id="g231"
     transform="translate(-30,121)"><line
       id="line233"
       y2="104.157"
       x2="368.436"
       y1="109.555"
       x1="368.436"
       style="fill:none;stroke:#cccccc;stroke-width:0.75" /></g><g
     id="g235"
     transform="translate(-30,121)"><line
       id="line237"
       y2="104.157"
       x2="428.98801"
       y1="109.555"
       x1="428.98801"
       style="fill:none;stroke:#cccccc;stroke-width:0.75" /></g><path
     id="path4864"
     title="sin(2*pi*x/2.2727)"
     d="m 37.442904,56.191734 c 7.19303,-13.849226 14.386058,-27.479391 21.579087,-35.060124 7.193029,-7.580723 14.386057,-8.849379 21.579082,-3.29287 7.193036,5.55651 14.386061,17.798871 21.579097,31.457982 7.19302,13.659111 14.38605,28.319934 21.57908,37.705408 7.19303,9.385473 14.38605,13.18089 21.57909,9.788748 7.19303,-3.392148 14.38605,-13.901084 21.57909,-26.997297 7.19302,-13.096213 14.38606,-28.387574 21.57908,-39.321646 7.19303,-10.934077 14.38606,-17.15267 21.57909,-16.017467 7.19302,1.135203 14.38606,9.623907 21.57908,21.799803 7.19304,12.175896 14.38606,27.680467 21.57909,39.864728 7.19303,12.18426 14.38606,20.656329 21.57908,21.809047 7.19304,1.152717 14.38606,-5.084086 21.57909,-16.007362 7.19303,-10.923276 14.38606,-26.21791 21.57909,-39.319829 7.19303,-13.101918 14.38605,-23.596235 21.57909,-27.005413 7.19303,-3.409187 14.38605,0.405503 21.57909,9.778043 7.19302,9.372543 14.38606,24.039821 21.57908,37.701823 7.19303,13.662001 14.38606,25.892154 21.57909,31.464757 7.19302,5.572605 14.38606,4.284144 21.57908,-3.281866 7.19303,-7.566019 14.38606,-21.205644 21.57909,-35.054868"
     style="fill:none;fill-rule:evenodd;stroke:#000000;stroke-width:0.9386791px;stroke-linecap:butt;stroke-linejoin:miter;stroke-opacity:1"
     inkscape:connector-curvature="0" /><g
     id="g4987"
     transform="translate(-30,-1)"><g
       id="g4989"><path
         d="m 41.521,79.949 -1.627,0.535 0,2.908 1.627,0.546 0,0.977 -7.086,-2.404 0,-1.239 7.086,-2.394 0,1.071 z m -5.322,1.732 c -0.284,0.094 -0.578,0.178 -0.893,0.252 l 0,0.01 c 0.305,0.074 0.599,0.158 0.871,0.252 l 2.939,0.976 0,-2.467 -2.917,0.977 z"
         id="path4991"
         inkscape:connector-curvature="0" /><path
         d="m 41.521,73.764 -3.422,0 c -0.798,0 -1.155,0.084 -1.155,0.452 0,0.483 0.913,0.998 2.037,0.998 l 2.541,0 0,0.786 -3.38,0 c -0.84,0 -1.197,0.095 -1.197,0.473 0,0.482 0.913,0.966 2.037,0.966 l 2.541,0 0,0.798 -5.218,0 0,-0.756 c 0.378,0 0.756,0.031 1.176,0.084 l 0.011,-0.011 c -0.777,-0.21 -1.291,-0.651 -1.291,-1.302 0,-0.651 0.493,-0.924 1.27,-0.924 -0.756,-0.21 -1.27,-0.651 -1.27,-1.312 0,-0.745 0.598,-1.05 1.68,-1.05 l 3.643,0 0,0.798 z"
         id="path4993"
         inkscape:connector-curvature="0" /><path
         d="m 41.584,69.543 c 0,0.378 -0.032,0.734 -0.094,0.976 l 2.624,0 0,0.945 -7.811,0 0,-0.903 c 0.294,0 0.756,0.01 1.208,0.094 l 0.01,-0.021 c -0.871,-0.315 -1.322,-0.956 -1.322,-1.795 0,-1.197 0.871,-2.016 2.467,-2.016 1.858,0.001 2.918,1.156 2.918,2.72 z m -4.608,-0.451 c 0,0.945 1.187,1.428 2.1,1.428 l 1.596,0 c 0.105,-0.284 0.179,-0.578 0.179,-1.018 0,-0.935 -0.651,-1.69 -2.1,-1.69 -1.124,-10e-4 -1.775,0.492 -1.775,1.28 z"
         id="path4995"
         inkscape:connector-curvature="0" /><path
         d="m 34.582,63.369 0,1.911 -0.724,0 0,-2.855 6.918,0 0,-1.9 0.745,0 0,4.756 -0.745,0 0,-1.911 -6.194,0 z"
         id="path4997"
         inkscape:connector-curvature="0" /><path
         d="m 34.677,55.757 c 0.409,0 0.745,0.336 0.745,0.756 0,0.42 -0.336,0.766 -0.745,0.766 -0.42,0 -0.756,-0.346 -0.756,-0.766 0,-0.42 0.336,-0.756 0.756,-0.756 z m 6.844,3.139 -0.745,0 0,-1.953 -3.748,0 0,1.795 -0.725,0 0,-2.74 4.473,0 0,-1.711 0.745,0 0,4.609 z"
         id="path4999"
         inkscape:connector-curvature="0" /><path
         d="m 41.616,49.646 c 0,1.103 -0.504,1.795 -1.774,1.795 l -2.782,0 0,1.701 -0.756,0 0,-1.701 -1.69,0 -0.262,-0.944 1.952,0 0,-2.268 0.756,0 0,2.268 2.509,0 c 0.914,0 1.239,-0.473 1.239,-1.145 0,-0.347 -0.053,-0.787 -0.147,-1.113 l 0.777,-0.084 c 0.104,0.43 0.178,1.06 0.178,1.491 z"
         id="path5001"
         inkscape:connector-curvature="0" /><path
         d="m 41.521,42.874 c -0.409,0 -0.893,-0.01 -1.197,-0.062 l -0.01,0.01 c 0.829,0.304 1.312,0.945 1.312,1.848 0,1.186 -0.746,1.564 -1.669,1.564 l -3.653,0 0,-0.944 3.37,0 c 0.735,0 1.176,-0.2 1.176,-0.882 0,-0.872 -0.997,-1.491 -2.142,-1.491 l -2.404,0 0,-0.944 5.218,0 0,0.901 z"
         id="path5003"
         inkscape:connector-curvature="0" /><path
         d="m 41.521,36.542 c -0.294,0 -0.756,-0.011 -1.207,-0.095 l -0.011,0.021 c 0.861,0.304 1.323,0.955 1.323,1.795 0,1.197 -0.872,2.016 -2.467,2.016 -1.816,0 -2.929,-1.165 -2.929,-2.792 0,-0.304 0.011,-0.578 0.053,-0.903 l -2.425,0 0,-0.944 7.664,0 0,0.902 z m -4.43,0.042 c -0.074,0.315 -0.116,0.63 -0.116,0.935 0,0.986 0.599,1.774 2.1,1.774 1.124,0 1.774,-0.494 1.774,-1.281 0,-0.945 -1.187,-1.428 -2.1,-1.428 l -1.658,0 z"
         id="path5005"
         inkscape:connector-curvature="0" /><path
         d="m 38.949,29.235 0,3.716 c 0.032,0.01 0.063,0.01 0.105,0.01 1.27,0 1.806,-0.714 1.806,-1.795 0,-0.535 -0.147,-1.271 -0.347,-1.68 l 0.777,-0.084 c 0.2,0.504 0.336,1.249 0.336,1.921 0,1.617 -0.85,2.604 -2.688,2.604 -1.564,0 -2.75,-0.976 -2.75,-2.478 0,-1.48 1.081,-2.236 2.278,-2.236 0.116,10e-4 0.305,10e-4 0.483,0.022 z m -2.047,2.257 c 0,0.704 0.515,1.323 1.365,1.428 l 0,-2.74 c -0.85,-0.011 -1.365,0.567 -1.365,1.312 z"
         id="path5007"
         inkscape:connector-curvature="0" /></g></g><line
     x1="37.193001"
     y1="103.157"
     x2="37.193001"
     y2="108.555"
     id="line5009"
     style="fill:none;stroke:#cccccc;stroke-width:0.75" /><line
     x1="37.022003"
     y1="9.2030029"
     x2="446.396"
     y2="9.2030029"
     id="line5011"
     style="fill:none;stroke:#cccccc;stroke-width:0.75" /><line
     x1="37.022003"
     y1="103.157"
     x2="446.396"
     y2="103.157"
     id="line5013"
     style="fill:none;stroke:#cccccc;stroke-width:0.75" /><line
     x1="37.022003"
     y1="56.193001"
     x2="446.396"
     y2="56.193001"
     id="line5015"
     style="fill:none;stroke:#cccccc;stroke-width:0.75" /><g
     id="g5017"
     transform="translate(-30,-1)"><text
       transform="translate(54.8516,59.3027)"
       font-size="9"
       id="text5019"
       style="font-size:9px;font-family:TheSansMono-Light">0</text>
</g><g
     id="g5021"
     transform="translate(-30,-1)"><g
       id="g5023"><path
         d="m 69.007,117.366 c 0,1.989 -0.738,3.088 -2.035,3.088 -1.144,0 -1.917,-1.071 -1.936,-3.007 0,-1.963 0.846,-3.043 2.035,-3.043 1.234,0 1.936,1.098 1.936,2.962 z m -3.178,0.09 c 0,1.521 0.468,2.386 1.188,2.386 0.81,0 1.197,-0.945 1.197,-2.44 0,-1.44 -0.369,-2.385 -1.188,-2.385 -0.693,0 -1.197,0.846 -1.197,2.439 z"
         id="path5025"
         inkscape:connector-curvature="0" /></g></g><g
     id="g5027"
     transform="translate(-30,-1)"><g
       id="g5029"><path
         d="m 126.95,115.242 -0.018,0 -1.017,0.549 -0.153,-0.603 1.279,-0.684 0.675,0 0,5.852 -0.765,0 0,-5.114 z"
         id="path5031"
         inkscape:connector-curvature="0" /></g></g><g
     id="g5033"
     transform="translate(-30,-1)"><g
       id="g5035"><path
         d="m 185.848,120.355 0,-0.486 0.621,-0.603 c 1.494,-1.422 2.169,-2.179 2.179,-3.061 0,-0.594 -0.288,-1.143 -1.162,-1.143 -0.531,0 -0.972,0.27 -1.242,0.495 l -0.252,-0.558 c 0.405,-0.342 0.981,-0.594 1.656,-0.594 1.26,0 1.792,0.864 1.792,1.702 0,1.08 -0.783,1.953 -2.017,3.142 l -0.468,0.432 0,0.018 2.628,0 0,0.657 -3.735,0 z"
         id="path5037"
         inkscape:connector-curvature="0" /></g></g><g
     id="g5039"
     transform="translate(-30,-1)"><g
       id="g5041"><path
         d="m 58.272,103.486 0,0.585 -2.224,0 0,-0.585 2.224,0 z"
         id="path5043"
         inkscape:connector-curvature="0" /></g></g><path
     d="M 174.003,56.193"
     id="path5047"
     inkscape:connector-curvature="0"
     style="fill:none;stroke:#000000;stroke-width:0.75;stroke-linecap:round" /><g
     id="g5049"
     transform="translate(-30,-1)"><line
       x1="187.53799"
       y1="109.555"
       x2="187.53799"
       y2="104.157"
       id="line5051"
       style="fill:none;stroke:#cccccc;stroke-width:0.75" /><line
       x1="127.365"
       y1="109.555"
       x2="127.365"
       y2="104.157"
       id="line5053"
       style="fill:none;stroke:#cccccc;stroke-width:0.75" /><line
       x1="67.193001"
       y1="109.555"
       x2="67.193001"
       y2="104.157"
       id="line5055"
       style="fill:none;stroke:#cccccc;stroke-width:0.75" /></g><g
     id="g5057"
     transform="translate(-30,-1)"><g
       id="g5059"><path
         d="m 245.893,119.446 c 0.225,0.144 0.747,0.369 1.296,0.369 1.017,0 1.333,-0.648 1.323,-1.134 -0.009,-0.819 -0.747,-1.17 -1.512,-1.17 l -0.441,0 0,-0.594 0.441,0 c 0.576,0 1.305,-0.297 1.305,-0.99 0,-0.468 -0.297,-0.882 -1.026,-0.882 -0.468,0 -0.918,0.207 -1.17,0.387 l -0.207,-0.576 c 0.306,-0.225 0.9,-0.45 1.531,-0.45 1.152,0 1.674,0.684 1.674,1.396 0,0.603 -0.36,1.116 -1.08,1.377 l 0,0.018 c 0.72,0.144 1.305,0.685 1.305,1.504 0,0.936 -0.729,1.755 -2.134,1.755 -0.657,0 -1.233,-0.207 -1.521,-0.396 l 0.216,-0.614 z"
         id="path5061"
         inkscape:connector-curvature="0" /></g></g><g
     id="g5063"
     transform="translate(-30,-1)"><g
       id="g5065"><path
         d="m 308.528,120.355 0,-1.593 -2.719,0 0,-0.522 2.611,-3.736 0.854,0 0,3.637 0.819,0 0,0.622 -0.819,0 0,1.593 -0.746,0 z m 0,-2.215 0,-1.954 c 0,-0.306 0.01,-0.612 0.027,-0.918 l -0.027,0 c -0.18,0.342 -0.324,0.594 -0.485,0.864 l -1.432,1.99 0,0.018 1.917,0 z"
         id="path5067"
         inkscape:connector-curvature="0" /></g></g><g
     id="g5069"
     transform="translate(-30,-1)"><g
       id="g5071"><path
         d="m 370.206,115.169 -2.233,0 -0.225,1.503 c 0.135,-0.018 0.261,-0.036 0.478,-0.036 0.45,0 0.899,0.099 1.26,0.315 0.459,0.261 0.838,0.765 0.838,1.503 0,1.143 -0.91,1.999 -2.179,1.999 -0.64,0 -1.18,-0.18 -1.459,-0.36 l 0.198,-0.603 c 0.243,0.144 0.72,0.324 1.251,0.324 0.748,0 1.387,-0.486 1.387,-1.27 -0.009,-0.756 -0.513,-1.296 -1.684,-1.296 -0.333,0 -0.594,0.036 -0.811,0.063 l 0.379,-2.809 2.8,0 0,0.667 z"
         id="path5073"
         inkscape:connector-curvature="0" /></g></g><g
     id="g5075"
     transform="translate(-30,-1)"><g
       id="g5077"><path
         d="m 430.29,115.062 c -0.162,-0.009 -0.369,0 -0.594,0.036 -1.243,0.208 -1.9,1.117 -2.035,2.08 l 0.027,0 c 0.279,-0.369 0.765,-0.675 1.413,-0.675 1.035,0 1.765,0.747 1.765,1.891 0,1.071 -0.729,2.062 -1.944,2.062 -1.252,0 -2.071,-0.972 -2.071,-2.494 0,-1.152 0.415,-2.062 0.991,-2.638 0.485,-0.477 1.134,-0.774 1.872,-0.864 0.234,-0.036 0.433,-0.045 0.576,-0.045 l 0,0.647 z m -0.225,3.376 c 0,-0.837 -0.478,-1.341 -1.207,-1.341 -0.477,0 -0.918,0.297 -1.134,0.72 -0.055,0.09 -0.091,0.207 -0.091,0.351 0.019,0.963 0.46,1.674 1.288,1.674 0.684,0 1.144,-0.567 1.144,-1.404 z"
         id="path5079"
         inkscape:connector-curvature="0" /></g></g><g
     id="g5081"
     transform="translate(-30,-1)"><line
       x1="307.88101"
       y1="109.555"
       x2="307.88101"
       y2="104.157"
       id="line5083"
       style="fill:none;stroke:#cccccc;stroke-width:0.75" /></g><g
     id="g5085"
     transform="translate(-30,-1)"><line
       x1="247.328"
       y1="109.555"
       x2="247.328"
       y2="104.157"
       id="line5087"
       style="fill:none;stroke:#cccccc;stroke-width:0.75" /></g><g
     id="g5089"
     transform="translate(-30,-1)"><line
       x1="368.436"
       y1="109.555"
       x2="368.436"
       y2="104.157"
       id="line5091"
       style="fill:none;stroke:#cccccc;stroke-width:0.75" /></g><g
     id="g5093"
     transform="translate(-30,-1)"><line
       x1="428.98801"
       y1="109.555"
       x2="428.98801"
       y2="104.157"
       id="line5095"
       style="fill:none;stroke:#cccccc;stroke-width:0.75" /></g><line
     x1="173.948"
     y1="8.5039978"
     x2="173.948"
     y2="112.555"
     id="line5097"
     style="fill:none;stroke:#000000;stroke-width:0.375" /><line
     x1="311.07001"
     y1="8.5039978"
     x2="311.07001"
     y2="112.555"
     id="line5099"
     style="fill:none;stroke:#000000;stroke-width:0.375" /><text
     xml:space="preserve"
     style="font-style:normal;font-variant:normal;font-weight:normal;font-stretch:normal;font-size:10px;line-height:125%;font-family:'Bitstream Vera Sans';-inkscape-font-specification:'Bitstream Vera Sans, Normal';text-align:start;letter-spacing:0px;word-spacing:0px;writing-mode:lr-tb;text-anchor:start;fill:#000000;fill-opacity:1;stroke:none;stroke-width:1px;stroke-linecap:butt;stroke-linejoin:miter;stroke-opacity:1"
     x="-203.38937"
     y="471.85196"
     id="text5142"
     sodipodi:linespacing="125%"
     transform="matrix(0,-1,1,0,0,0)"><tspan
       sodipodi:role="line"
       id="tspan5144"
       x="-203.38937"
       y="471.85196">Violoncelo</tspan></text>
<text
     transform="matrix(0,-1,1,0,0,0)"
     sodipodi:linespacing="125%"
     id="text5146"
     y="471.85196"
     x="-85.389374"
     style="font-style:normal;font-variant:normal;font-weight:normal;font-stretch:normal;font-size:10px;line-height:125%;font-family:'Bitstream Vera Sans';-inkscape-font-specification:'Bitstream Vera Sans, Normal';text-align:start;letter-spacing:0px;word-spacing:0px;writing-mode:lr-tb;text-anchor:start;fill:#000000;fill-opacity:1;stroke:none;stroke-width:1px;stroke-linecap:butt;stroke-linejoin:miter;stroke-opacity:1"
     xml:space="preserve"><tspan
       y="471.85196"
       x="-85.389374"
       id="tspan5148"
       sodipodi:role="line">Diapasão</tspan></text>
</svg>