<?xml version="1.0" encoding="UTF-8" standalone="no"?>
<!-- Created with Inkscape (http://www.inkscape.org/) -->

<svg
   xmlns:dc="http://purl.org/dc/elements/1.1/"
   xmlns:cc="http://creativecommons.org/ns#"
   xmlns:rdf="http://www.w3.org/1999/02/22-rdf-syntax-ns#"
   xmlns:svg="http://www.w3.org/2000/svg"
   xmlns="http://www.w3.org/2000/svg"
   xmlns:sodipodi="http://sodipodi.sourceforge.net/DTD/sodipodi-0.dtd"
   xmlns:inkscape="http://www.inkscape.org/namespaces/inkscape"
   width="744.09448819"
   height="1052.3622047"
   id="svg2"
   version="1.1"
   inkscape:version="0.48.4 r9939"
   sodipodi:docname="oof090.svg"
   inkscape:export-filename="/home/amoreira/Dropbox/aulas/ef2/nts/figs/oof090.png"
   inkscape:export-xdpi="300"
   inkscape:export-ydpi="300">
  <sodipodi:namedview
     id="base"
     pagecolor="#ffffff"
     bordercolor="#666666"
     borderopacity="1.0"
     inkscape:pageopacity="0.0"
     inkscape:pageshadow="2"
     inkscape:zoom="1.4142136"
     inkscape:cx="451.14594"
     inkscape:cy="874.07865"
     inkscape:document-units="px"
     inkscape:current-layer="layer1"
     showgrid="false"
     inkscape:window-width="1366"
     inkscape:window-height="721"
     inkscape:window-x="-2"
     inkscape:window-y="-3"
     inkscape:window-maximized="1" />
  <defs
     id="defs4">
    <marker
       inkscape:stockid="Arrow2Lstart"
       orient="auto"
       refY="0.0"
       refX="0.0"
       id="Arrow2Lstart"
       style="overflow:visible">
      <path
         id="path4682"
         style="fill-rule:evenodd;stroke-width:0.62500000;stroke-linejoin:round"
         d="M 8.7185878,4.0337352 L -2.2072895,0.016013256 L 8.7185884,-4.0017078 C 6.9730900,-1.6296469 6.9831476,1.6157441 8.7185878,4.0337352 z "
         transform="scale(1.1) translate(1,0)" />
    </marker>
    <marker
       style="overflow:visible;"
       id="Arrow1Lend"
       refX="0.0"
       refY="0.0"
       orient="auto"
       inkscape:stockid="Arrow1Lend">
      <path
         transform="scale(0.8) rotate(180) translate(12.5,0)"
         style="fill-rule:evenodd;stroke:#000000;stroke-width:1.0pt;"
         d="M 0.0,0.0 L 5.0,-5.0 L -12.5,0.0 L 5.0,5.0 L 0.0,0.0 z "
         id="path8239" />
    </marker>
    <marker
       style="overflow:visible"
       id="Arrow1Lstart"
       refX="0.0"
       refY="0.0"
       orient="auto"
       inkscape:stockid="Arrow1Lstart">
      <path
         transform="scale(0.8) translate(12.5,0)"
         style="fill-rule:evenodd;stroke:#000000;stroke-width:1.0pt"
         d="M 0.0,0.0 L 5.0,-5.0 L -12.5,0.0 L 5.0,5.0 L 0.0,0.0 z "
         id="path8236" />
    </marker>
    <inkscape:perspective
       id="perspective6577"
       inkscape:persp3d-origin="372.04724 : 350.78739 : 1"
       inkscape:vp_z="943.4986 : 803.36695 : 1"
       inkscape:vp_y="6.123234e-14 : 1000 : 0"
       inkscape:vp_x="-265.87214 : 804.07405 : 1"
       sodipodi:type="inkscape:persp3d" />
    <marker
       style="overflow:visible"
       id="Arrow1Mstart"
       refX="0.0"
       refY="0.0"
       orient="auto"
       inkscape:stockid="Arrow1Mstart">
      <path
         transform="scale(0.4) translate(10,0)"
         style="fill-rule:evenodd;stroke:#000000;stroke-width:1.0pt"
         d="M 0.0,0.0 L 5.0,-5.0 L -12.5,0.0 L 5.0,5.0 L 0.0,0.0 z "
         id="path3798" />
    </marker>
    <marker
       style="overflow:visible;"
       id="Arrow1Mend"
       refX="0.0"
       refY="0.0"
       orient="auto"
       inkscape:stockid="Arrow1Mend">
      <path
         transform="scale(0.4) rotate(180) translate(10,0)"
         style="fill-rule:evenodd;stroke:#000000;stroke-width:1.0pt;"
         d="M 0.0,0.0 L 5.0,-5.0 L -12.5,0.0 L 5.0,5.0 L 0.0,0.0 z "
         id="path3801" />
    </marker>
    <marker
       style="overflow:visible;"
       id="Arrow1LendL"
       refX="0.0"
       refY="0.0"
       orient="auto"
       inkscape:stockid="Arrow1LendL">
      <path
         transform="scale(0.8) rotate(180) translate(12.5,0)"
         style="stroke:#000000;stroke-width:1.0pt;fill:#000000;fill-rule:evenodd"
         d="M 0.0,0.0 L 5.0,-5.0 L -12.5,0.0 L 5.0,5.0 L 0.0,0.0 z "
         id="path4285" />
    </marker>
    <marker
       style="overflow:visible;"
       id="Arrow1Lendn"
       refX="0.0"
       refY="0.0"
       orient="auto"
       inkscape:stockid="Arrow1Lendn">
      <path
         transform="scale(0.8) rotate(180) translate(12.5,0)"
         style="stroke:#000000;stroke-width:1.0pt;fill:#000000;fill-rule:evenodd"
         d="M 0.0,0.0 L 5.0,-5.0 L -12.5,0.0 L 5.0,5.0 L 0.0,0.0 z "
         id="path4288" />
    </marker>
    <marker
       style="overflow:visible;"
       id="Arrow1LendQ"
       refX="0.0"
       refY="0.0"
       orient="auto"
       inkscape:stockid="Arrow1LendQ">
      <path
         transform="scale(0.8) rotate(180) translate(12.5,0)"
         style="stroke:#000000;stroke-width:1.0pt;fill:#000000;fill-rule:evenodd"
         d="M 0.0,0.0 L 5.0,-5.0 L -12.5,0.0 L 5.0,5.0 L 0.0,0.0 z "
         id="path4291" />
    </marker>
    <marker
       style="overflow:visible;"
       id="Arrow1Lendg"
       refX="0.0"
       refY="0.0"
       orient="auto"
       inkscape:stockid="Arrow1Lendg">
      <path
         transform="scale(0.8) rotate(180) translate(12.5,0)"
         style="stroke:#000000;stroke-width:1.0pt;fill:#000000;fill-rule:evenodd"
         d="M 0.0,0.0 L 5.0,-5.0 L -12.5,0.0 L 5.0,5.0 L 0.0,0.0 z "
         id="path4294" />
    </marker>
    <marker
       style="overflow:visible;"
       id="Arrow1LendLc"
       refX="0.0"
       refY="0.0"
       orient="auto"
       inkscape:stockid="Arrow1LendLc">
      <path
         transform="scale(0.8) rotate(180) translate(12.5,0)"
         style="fill-rule:evenodd;stroke:#000000;stroke-width:1.0pt;fill:#000000"
         d="M 0.0,0.0 L 5.0,-5.0 L -12.5,0.0 L 5.0,5.0 L 0.0,0.0 z "
         id="path4367" />
    </marker>
    <marker
       style="overflow:visible;"
       id="Arrow1LendgX"
       refX="0.0"
       refY="0.0"
       orient="auto"
       inkscape:stockid="Arrow1LendgX">
      <path
         transform="scale(0.8) rotate(180) translate(12.5,0)"
         style="fill-rule:evenodd;stroke:#000000;stroke-width:1.0pt;fill:#000000"
         d="M 0.0,0.0 L 5.0,-5.0 L -12.5,0.0 L 5.0,5.0 L 0.0,0.0 z "
         id="path4444" />
    </marker>
    <marker
       style="overflow:visible;"
       id="Arrow1LendQZ"
       refX="0.0"
       refY="0.0"
       orient="auto"
       inkscape:stockid="Arrow1LendQZ">
      <path
         transform="scale(0.8) rotate(180) translate(12.5,0)"
         style="fill-rule:evenodd;stroke:#505050;stroke-width:1.0pt;fill:#505050"
         d="M 0.0,0.0 L 5.0,-5.0 L -12.5,0.0 L 5.0,5.0 L 0.0,0.0 z "
         id="path4525" />
    </marker>
    <marker
       style="overflow:visible;"
       id="Arrow1Lendnh"
       refX="0.0"
       refY="0.0"
       orient="auto"
       inkscape:stockid="Arrow1Lendnh">
      <path
         transform="scale(0.8) rotate(180) translate(12.5,0)"
         style="fill-rule:evenodd;stroke:#bebebe;stroke-width:1.0pt;fill:#bebebe"
         d="M 0.0,0.0 L 5.0,-5.0 L -12.5,0.0 L 5.0,5.0 L 0.0,0.0 z "
         id="path4610" />
    </marker>
    <marker
       style="overflow:visible;"
       id="Arrow1LendLcu"
       refX="0.0"
       refY="0.0"
       orient="auto"
       inkscape:stockid="Arrow1LendLcu">
      <path
         transform="scale(0.8) rotate(180) translate(12.5,0)"
         style="stroke:#505050;stroke-width:1.0pt;fill:#505050;fill-rule:evenodd"
         d="M 0.0,0.0 L 5.0,-5.0 L -12.5,0.0 L 5.0,5.0 L 0.0,0.0 z "
         id="path4699" />
    </marker>
    <marker
       style="overflow:visible;"
       id="Arrow1LendgX9"
       refX="0.0"
       refY="0.0"
       orient="auto"
       inkscape:stockid="Arrow1LendgX9">
      <path
         transform="scale(0.8) rotate(180) translate(12.5,0)"
         style="stroke:#7d7d7d;stroke-width:1.0pt;fill:#7d7d7d;fill-rule:evenodd"
         d="M 0.0,0.0 L 5.0,-5.0 L -12.5,0.0 L 5.0,5.0 L 0.0,0.0 z "
         id="path4702" />
    </marker>
  </defs>
  <metadata
     id="metadata7">
    <rdf:RDF>
      <cc:Work
         rdf:about="">
        <dc:format>image/svg+xml</dc:format>
        <dc:type
           rdf:resource="http://purl.org/dc/dcmitype/StillImage" />
        <dc:title></dc:title>
      </cc:Work>
    </rdf:RDF>
  </metadata>
  <g
     id="layer1"
     inkscape:groupmode="layer"
     inkscape:label="Layer 1">
    <path
       style="fill:none;stroke:#000000;stroke-width:1px;stroke-linecap:butt;stroke-linejoin:miter;stroke-opacity:1"
       d="m 43,68.362175 c 0,0 15.075243,0 23.000001,0 8.976048,0 11.023951,-18.031223 19.999999,-18.031223 8.976048,0 11.023952,18.031223 20,18.031223 15.72395,0 49,0 49,0"
       id="path3065"
       inkscape:connector-curvature="0"
       sodipodi:nodetypes="cszsc" />
    <path
       style="fill:none;stroke:#000000;stroke-width:2;stroke-linecap:butt;stroke-linejoin:miter;stroke-opacity:1;stroke-miterlimit:4;stroke-dasharray:none"
       d="m 155,68.362175 85,0"
       id="path3061" />
    <path
       sodipodi:type="arc"
       style="fill:#000000;fill-opacity:1;stroke:none"
       id="path3925"
       sodipodi:cx="155.38672"
       sodipodi:cy="68.423088"
       sodipodi:rx="1.9445438"
       sodipodi:ry="1.9445438"
       d="m 157.33126,68.423088 a 1.9445438,1.9445438 0 1 1 -3.88909,0 1.9445438,1.9445438 0 1 1 3.88909,0 z" />
    <path
       sodipodi:nodetypes="cszsc"
       inkscape:connector-curvature="0"
       id="path3927"
       d="m 43,117.83641 c 0,0 53.075243,0 61,0 8.97605,0 11.02395,18.03122 20,18.03122 8.97605,0 11.02395,-18.03122 20,-18.03122 15.72395,0 11,0 11,0"
       style="fill:none;stroke:#000000;stroke-width:1px;stroke-linecap:butt;stroke-linejoin:miter;stroke-opacity:1" />
    <path
       id="path3929"
       d="m 155,117.83641 c 0,0 14.60841,0 21.5,0 4.25735,0 5.49266,-8.25 9.75,-8.25 4.25735,0 5.49266,8.25 9.75,8.25 12.53968,0 44,0 44,0"
       style="fill:none;stroke:#000000;stroke-width:2;stroke-linecap:butt;stroke-linejoin:miter;stroke-miterlimit:4;stroke-opacity:1;stroke-dasharray:none"
       inkscape:connector-curvature="0"
       sodipodi:nodetypes="cszsc" />
    <path
       d="m 157.33126,68.423088 a 1.9445438,1.9445438 0 1 1 -3.88909,0 1.9445438,1.9445438 0 1 1 3.88909,0 z"
       sodipodi:ry="1.9445438"
       sodipodi:rx="1.9445438"
       sodipodi:cy="68.423088"
       sodipodi:cx="155.38672"
       id="path3931"
       style="fill:#000000;fill-opacity:1;stroke:none"
       sodipodi:type="arc"
       transform="matrix(1,0,0,-1,0,186.19858)" />
    <path
       style="fill:none;stroke:#000000;stroke-width:1px;stroke-linecap:butt;stroke-linejoin:miter;stroke-opacity:1;marker-end:url(#Arrow1Mend)"
       d="m 86.000001,46.362174 26.499999,0"
       id="path3933"
       inkscape:connector-curvature="0" />
    <path
       inkscape:connector-curvature="0"
       id="path4355"
       d="m 124.54289,140.32664 -26.499996,0"
       style="fill:none;stroke:#000000;stroke-width:1px;stroke-linecap:butt;stroke-linejoin:miter;stroke-opacity:1;marker-end:url(#Arrow1Mend)" />
    <path
       sodipodi:nodetypes="cszsc"
       inkscape:connector-curvature="0"
       id="path4357"
       d="m 325,68.362175 c 0,0 15.07524,0 23,0 8.97605,0 11.02395,-18.031223 20,-18.031223 8.97605,0 11.02395,18.031223 20,18.031223 15.72395,0 49,0 49,0"
       style="fill:none;stroke:#000000;stroke-width:2;stroke-linecap:butt;stroke-linejoin:miter;stroke-opacity:1;stroke-miterlimit:4;stroke-dasharray:none" />
    <path
       id="path4359"
       d="m 437,68.362175 85,0"
       style="fill:none;stroke:#000000;stroke-width:1;stroke-linecap:butt;stroke-linejoin:miter;stroke-miterlimit:4;stroke-opacity:1;stroke-dasharray:none"
       inkscape:connector-curvature="0" />
    <path
       d="m 157.33126,68.423088 a 1.9445438,1.9445438 0 1 1 -3.88909,0 1.9445438,1.9445438 0 1 1 3.88909,0 z"
       sodipodi:ry="1.9445438"
       sodipodi:rx="1.9445438"
       sodipodi:cy="68.423088"
       sodipodi:cx="155.38672"
       id="path4361"
       style="fill:#000000;fill-opacity:1;stroke:none"
       sodipodi:type="arc"
       transform="translate(282,0)" />
    <path
       style="fill:none;stroke:#000000;stroke-width:2;stroke-linecap:butt;stroke-linejoin:miter;stroke-miterlimit:4;stroke-opacity:1;stroke-dasharray:none"
       d="m 325,117.85679 c 0,0 53.07524,0 61,0 8.97605,0 11.02395,-18.031289 20,-18.031289 8.97605,0 11.02395,18.031289 20,18.031289 15.72395,0 11,0 11,0"
       id="path4363"
       inkscape:connector-curvature="0"
       sodipodi:nodetypes="cszsc" />
    <path
       transform="translate(282,49.494522)"
       sodipodi:type="arc"
       style="fill:#000000;fill-opacity:1;stroke:none"
       id="path4368"
       sodipodi:cx="155.38672"
       sodipodi:cy="68.423088"
       sodipodi:rx="1.9445438"
       sodipodi:ry="1.9445438"
       d="m 157.33126,68.423088 a 1.9445438,1.9445438 0 1 1 -3.88909,0 1.9445438,1.9445438 0 1 1 3.88909,0 z" />
    <path
       inkscape:connector-curvature="0"
       id="path4370"
       d="m 368,46.362174 26.5,0"
       style="fill:none;stroke:#000000;stroke-width:1px;stroke-linecap:butt;stroke-linejoin:miter;stroke-opacity:1;marker-end:url(#Arrow1Mend)" />
    <path
       style="fill:none;stroke:#000000;stroke-width:1px;stroke-linecap:butt;stroke-linejoin:miter;stroke-opacity:1;marker-end:url(#Arrow1Mend)"
       d="m 407.25,91.830934 -26.5,0"
       id="path4372"
       inkscape:connector-curvature="0" />
    <path
       sodipodi:nodetypes="cszsc"
       inkscape:connector-curvature="0"
       style="fill:none;stroke:#000000;stroke-width:1;stroke-linecap:butt;stroke-linejoin:miter;stroke-miterlimit:4;stroke-opacity:1;stroke-dasharray:none"
       d="m 437.05546,117.83641 c 0,0 14.60841,0 21.5,0 4.25735,0 5.49266,-8.25 9.75,-8.25 4.25735,0 5.49266,8.25 9.75,8.25 12.53968,0 44,0 44,0"
       id="path4376" />
    <path
       inkscape:connector-curvature="0"
       id="path4378"
       d="m 186.22183,103.95316 22.25736,0"
       style="fill:none;stroke:#000000;stroke-width:1px;stroke-linecap:butt;stroke-linejoin:miter;stroke-opacity:1;marker-end:url(#Arrow1Mend)"
       sodipodi:nodetypes="cc" />
    <path
       sodipodi:nodetypes="cc"
       style="fill:none;stroke:#000000;stroke-width:1px;stroke-linecap:butt;stroke-linejoin:miter;stroke-opacity:1;marker-end:url(#Arrow1Mend)"
       d="m 467.65033,102.53895 22.25736,0"
       id="path4380"
       inkscape:connector-curvature="0" />
  </g>
</svg>
